<svg width="149" height="31" viewBox="0 0 149 31" fill="none" xmlns="http://www.w3.org/2000/svg">
<path d="M133.152 30.2999L148.193 15.2987L144.421 11.5688L139.734 16.2559L133.152 30.2999Z" fill="#000002"/>
<path d="M133.153 0.299805L118.154 15.2985L133.153 30.2997L139.735 16.2558L144.422 11.5712L133.153 0.299805Z" fill="#FFCC00"/>
<path d="M7.84463 17.5942C7.28746 18.7036 6.12384 19.5369 4.3784 19.5369C1.66161 19.5369 0 17.7323 0 15.193C0 12.8213 1.3855 10.7998 4.19103 10.7998C6.94233 10.7998 8.17991 12.4516 8.23415 14.0935H5.41875C5.18701 13.2257 4.64464 13.0531 4.26007 13.0531C3.76206 13.0531 2.91893 13.3984 2.91893 15.1437C2.91893 16.8891 3.76206 17.2343 4.26007 17.2343C4.56083 17.2343 4.975 17.1112 5.26591 16.6229C5.35958 16.4751 5.46313 16.2432 5.48778 16.046H8.23414C8.23414 16.5785 8.06158 17.18 7.84463 17.5942Z" fill="#000002"/>
<path d="M11.8241 19.5369C9.76799 19.5369 8.41699 18.2993 8.41699 16.2778C8.41699 14.2315 9.85181 13.063 11.8241 13.063C13.816 13.063 15.2952 14.266 15.2952 16.3221C15.2952 18.393 13.8012 19.5369 11.8241 19.5369ZM11.8635 14.8429C11.1436 14.8429 11.0746 15.8389 11.0746 16.3566C11.0746 16.8793 11.1534 17.8605 11.8635 17.8605C12.5685 17.8605 12.6474 16.8645 12.6474 16.3566C12.6474 15.8389 12.5685 14.8429 11.8635 14.8429Z" fill="#000002"/>
<path d="M30.7718 19.2702V16.0012C30.7718 15.4341 30.5894 15.2024 30.1851 15.2024C29.7808 15.2024 29.5145 15.5722 29.5145 16.0455V19.2702H26.9358V16.011C26.9358 15.444 26.7534 15.227 26.3491 15.227C25.93 15.227 25.6637 15.582 25.6637 16.0554V19.2702H23.1343V16.011C23.1343 15.444 22.9518 15.227 22.5475 15.227C22.1284 15.227 21.8622 15.582 21.8622 16.0554V19.2702H19.3328V16.011C19.3328 15.444 19.1503 15.227 18.7411 15.227C18.3269 15.227 18.0607 15.582 18.0607 16.0554V19.2702H15.5312V13.4126H17.8289L17.8881 13.9303C18.2678 13.4569 18.9186 13.1118 19.7272 13.1118C20.5359 13.1118 21.3543 13.5013 21.6305 14.0141C21.946 13.526 22.73 13.1216 23.5633 13.1216C24.5198 13.1216 25.1559 13.6048 25.4566 14.0486C25.7327 13.6048 26.497 13.1216 27.3056 13.1216C28.3213 13.1216 28.8686 13.5358 29.2483 14.0486C29.835 13.2597 30.6141 13.1216 31.0874 13.1216C32.8871 13.1216 33.3161 14.2902 33.3161 15.5968V19.2702H30.7718Z" fill="#000002"/>
<path d="M36.9657 19.5369C34.9096 19.5369 33.5537 18.2993 33.5537 16.2778C33.5537 14.2315 34.9885 13.063 36.9657 13.063C38.9527 13.063 40.4319 14.266 40.4319 16.3221C40.4319 18.393 38.9429 19.5369 36.9657 19.5369ZM37.0004 14.8429C36.2805 14.8429 36.2115 15.8389 36.2115 16.3566C36.2115 16.8793 36.2953 17.8605 37.0004 17.8605C37.7055 17.8605 37.7844 16.8645 37.7844 16.3566C37.7844 15.8389 37.7055 14.8429 37.0004 14.8429Z" fill="#000002"/>
<path d="M44.5286 19.2603V16.011C44.5286 15.444 44.2871 15.2221 43.8827 15.2221C43.4636 15.2221 43.1974 15.582 43.1974 16.0554V19.2603H40.668V13.4126H43.0051L43.0248 13.9993C43.5129 13.4126 44.1687 13.1118 44.8639 13.1118C45.707 13.1118 47.0925 13.595 47.0925 15.0989V19.2603H44.5286Z" fill="#000002"/>
<path d="M55.5134 19.2611L52.8657 19.2468C52.8657 19.2468 52.5205 18.2212 52.3825 17.5704C52.1507 16.7864 52.1261 16.4511 52.1261 16.4511C52.1261 16.4511 52.1158 16.7864 51.8943 17.5704C51.771 18.1719 51.4111 19.2616 51.4111 19.2616H48.7436L46.9834 13.4138H49.7347C49.7347 13.4138 50.0503 14.4197 50.1637 14.9867C50.3362 15.6326 50.3708 16.0123 50.3708 16.0123C50.3708 16.0123 50.4051 15.6425 50.5926 14.9867C50.7208 14.3802 51.0314 13.4138 51.0314 13.4138H53.3439C53.3439 13.4138 53.6545 14.3802 53.7827 14.9867C53.98 15.677 53.9997 16.0123 53.9997 16.0123C53.9997 16.0123 54.0244 15.687 54.2216 14.9867C54.3349 14.4296 54.6456 13.4138 54.6456 13.4138H57.2687L55.5134 19.2611Z" fill="#000002"/>
<path d="M59.4825 16.7413C59.4971 17.328 59.7487 17.8358 60.4341 17.8358C60.7545 17.8358 61.1589 17.673 61.2772 17.3181H63.7031C63.6586 17.5697 63.5157 17.8703 63.3924 18.0676C62.7416 19.0389 61.5089 19.5221 60.3305 19.5221C58.166 19.5221 56.8741 18.2401 56.815 16.4059C56.7705 14.7739 57.7173 13.063 60.1432 13.063C62.3866 13.063 63.7474 14.4386 63.7474 16.7413H59.4825ZM60.3996 14.557C59.9016 14.557 59.5663 14.9465 59.5219 15.4445H61.2427C61.1933 14.9711 60.8581 14.557 60.3996 14.557Z" fill="#000002"/>
<path d="M68.171 19.2609L68.1019 18.7383C67.673 19.1771 66.7855 19.5222 66.1149 19.5222C65.6859 19.5222 64.7146 19.4431 64.2067 18.7629C63.8024 18.2057 63.758 17.3034 64.113 16.7266C64.6012 15.9525 65.7204 15.6665 66.8298 15.5235C67.2341 15.4791 67.8012 15.351 67.8012 14.9959C67.8012 14.7147 67.6532 14.4733 67.2834 14.4733C66.9136 14.4733 66.5882 14.7838 66.5882 15.1783H64.1821L64.1968 15.1093C64.4482 13.7139 65.4689 13.0088 67.1995 13.0088C70.1234 13.0088 70.4686 14.0245 70.4833 15.7798L70.5031 17.4218C70.5178 18.541 70.5721 18.7974 70.6904 19.2609L68.171 19.2609ZM67.8456 16.6723C67.8456 16.6723 67.5103 16.7757 67.1997 16.8644C67.0025 16.9235 66.5094 17.0172 66.5094 17.4118C66.5094 17.6089 66.6672 17.8506 67.0173 17.8358C67.673 17.8144 67.8456 17.4315 67.8456 16.8546V16.6723Z" fill="#000002"/>
<path d="M71.0447 11.0071H73.5741V19.2609H71.0447V11.0071Z" fill="#000002"/>
<path d="M76.7007 19.4532C75.0243 19.4532 74.5756 18.6446 74.5756 17.0865V15.0305H73.8015V13.4132H74.5756V11.0071H77.105V13.4132H78.101V15.0305H77.105V16.623C77.105 17.1901 77.2924 17.55 77.8594 17.55C77.9481 17.55 78.0665 17.5357 78.1799 17.5142C78.2391 17.4999 78.2391 17.4892 78.2391 17.4892V19.1409C77.7657 19.3578 77.2234 19.4515 76.7007 19.4515" fill="#000002"/>
<path d="M85.0093 19.2607H82.475V16.0213C82.475 15.4542 82.2235 15.2225 81.8143 15.2225C81.41 15.2225 81.1437 15.5972 81.1437 16.0706V19.2607H78.5107V11.0068H80.9613V13.9997C81.3459 13.5264 82.0707 13.1122 82.7905 13.1122C83.6435 13.1122 85.0093 13.5954 85.0093 15.0993V19.2607Z" fill="#000002"/>
<path d="M90.7136 14.8966C91.4434 14.6797 91.9315 14.014 91.9315 13.1413C91.9315 11.81 90.9749 11.0112 89.3824 11.0112H86.207V19.275H89.4711C91.2412 19.275 92.2964 18.3973 92.2964 16.9181C92.2964 15.6165 91.3201 15.0297 90.7136 14.8966ZM86.9318 15.3107H89.4711C90.2551 15.3107 91.5716 15.5179 91.5716 16.9083C91.5716 18.3974 90.2551 18.6192 89.4711 18.6192H86.9318V15.3107ZM89.4711 14.6451H86.9318V11.6671H89.3824C90.0628 11.6671 91.2067 11.8592 91.2067 13.161C91.2067 14.1176 90.5904 14.6451 89.4711 14.6451Z" fill="#000002"/>
<path d="M97.8233 18.6592L97.7444 18.6699L97.4831 18.6878C97.3451 18.6878 97.1527 18.6334 97.1527 18.1503V14.9355C97.1527 13.8163 96.4378 13.2246 95.0819 13.2246C93.7605 13.2246 92.9617 13.8755 92.8434 15.0687L92.8331 15.1378H93.5234L93.5285 15.0834C93.5633 14.7925 93.6567 14.541 93.7997 14.3487C94.0561 14.0085 94.49 13.831 95.0472 13.831C96.3735 13.831 96.477 14.6594 96.477 14.9158V15.0882C96.477 15.458 96.2404 15.5616 95.8854 15.601C95.0373 15.7194 93.9821 15.9066 93.3658 16.2716C93.1045 16.4147 92.8826 16.6315 92.7692 16.8435C92.5178 17.2922 92.503 17.9924 92.7349 18.5052C93.0011 19.0968 93.6322 19.4222 94.5 19.4222C95.4023 19.4222 96.0828 19.0328 96.4969 18.3277V18.4113C96.5116 19.0079 96.7977 19.2989 97.3697 19.2989L97.8331 19.2151L97.8229 19.1658L97.8233 18.6592ZM96.4772 16.1298V16.9877C96.4772 17.461 96.1173 18.8021 94.5346 18.8021C93.7753 18.8021 93.2477 18.3436 93.2477 17.6829C93.2477 16.8102 93.9133 16.6277 94.6233 16.4355C95.1657 16.2923 95.9447 16.1741 96.4772 16.1298Z" fill="#000002"/>
<path d="M100.669 13.2202C99.8652 13.2202 99.17 13.6591 98.8347 14.3099V13.3829H98.1543V19.2751H98.8347V15.9863C98.8347 14.6945 99.5595 13.8316 100.649 13.8316C101.606 13.8316 102.074 14.4036 102.074 15.5771V19.2751H102.75V15.5771C102.75 14.9953 102.75 13.2202 100.669 13.2202Z" fill="#000002"/>
<path d="M105.659 15.597C105.733 15.5229 107.977 13.3831 107.977 13.3831H107.059C107.059 13.3831 104.303 16.0161 104.101 16.2084V11.0115H103.421V19.2752H104.101V17.0515C104.14 17.0157 105.053 16.1838 105.151 16.095C105.23 16.2134 107.326 19.2752 107.326 19.2752H108.154C108.154 19.2752 105.718 15.6857 105.659 15.597Z" fill="#000002"/>
</svg>
