<svg width="77" height="40" viewBox="0 0 77 40" fill="none" xmlns="http://www.w3.org/2000/svg">
<path d="M1.90698 32.3628C1.90698 32.5861 1.9535 32.8187 1.99071 33.0326C2.3535 34.307 3.41397 35.1908 4.76281 35.1908C6.6884 35.1908 7.84189 33.6187 7.84189 31.2931C7.84189 29.2558 6.79073 27.5163 4.81862 27.5163C3.56281 27.5163 2.39071 28.3721 2.00931 29.7768C1.9721 29.9907 1.90698 30.2419 1.90698 30.5303V32.3628ZM0.0837213 21.5442H1.90698V27.9163H1.9535C2.60466 26.7814 3.77676 26.0465 5.41398 26.0465C7.92561 26.0465 9.70237 28.1489 9.68376 31.228C9.68376 34.8559 7.40468 36.6512 5.1349 36.6512C3.66513 36.6512 2.49303 36.0931 1.73954 34.7442H1.67443L1.60001 36.428H0C0.0465118 35.7303 0.0837213 34.707 0.0837213 33.8047V21.5442Z" fill="#165680"/>
<path d="M17.1071 31.2469C15.0885 31.2004 12.8094 31.5632 12.8094 33.5353C12.8094 34.726 13.6094 35.2934 14.5489 35.2934C15.8699 35.2934 16.7071 34.4562 17.0048 33.5911C17.0606 33.405 17.1071 33.2004 17.1071 33.005V31.2469ZM18.8838 33.9911C18.8838 34.8748 18.9304 35.7306 19.0513 36.4283H17.3769L17.228 35.1446H17.1722C16.6048 35.9446 15.5071 36.6516 14.0652 36.6516C12.0094 36.6516 10.9675 35.2097 10.9675 33.7399C10.9675 31.2934 13.1443 29.9446 17.0606 29.9725V29.7585C17.0606 28.9213 16.8373 27.4143 14.7629 27.4143C13.8141 27.4143 12.828 27.7027 12.121 28.1678L11.6931 26.9492C12.5396 26.4097 13.7489 26.0469 15.0327 26.0469C18.1303 26.0469 18.8838 28.1678 18.8838 30.1957V33.9911Z" fill="#165680"/>
<path d="M21.7209 29.0236C21.7209 27.9725 21.693 27.1166 21.6372 26.2794H23.2651L23.3767 27.9539H23.414C23.9163 26.9957 25.0884 26.0469 26.7721 26.0469C28.1768 26.0469 30.3535 26.8841 30.3535 30.3632V36.4283H28.5117V30.5771C28.5117 28.9399 27.8977 27.5818 26.1582 27.5818C24.9488 27.5818 24 28.4376 23.6837 29.4701C23.6 29.6934 23.5628 30.0097 23.5628 30.326V36.4283H21.7209V29.0236Z" fill="#165680"/>
<path d="M34.8845 30.9303H34.9218C35.1729 30.5768 35.5264 30.1396 35.8241 29.7768L38.8008 26.2791H41.0241L37.1078 30.4466L41.5636 36.428H39.3218L35.8241 31.5628L34.8845 32.614V36.428H33.0613V21.5442H34.8845V30.9303Z" fill="#165680"/>
<path d="M52.5963 34.3817C51.1172 34.3817 49.9172 32.791 49.9172 30.8282C49.9172 28.8561 51.1172 27.2654 52.5963 27.2654C54.0754 27.2654 55.2754 28.8561 55.2754 30.8282C55.2754 32.791 54.0754 34.3817 52.5963 34.3817ZM56.7638 26.6421C56.6986 26.5584 56.6242 26.4747 56.5591 26.4002C56.4382 26.2793 56.3079 26.1584 56.1591 26.0467C55.3963 25.4235 54.4754 25.0607 53.48 25.0607C52.4103 25.0607 51.4242 25.4886 50.6242 26.2049C50.6056 26.2235 50.587 26.2421 50.5591 26.2514C50.5312 26.27 50.494 26.2886 50.4475 26.27C50.3172 26.2421 50.1777 26.1026 50.1684 25.8979V21.7491C50.1684 21.4886 49.9544 21.2839 49.694 21.2839H47.6753C47.4149 21.2839 47.2009 21.4886 47.2009 21.7491V21.8979C47.2009 21.9072 47.2009 21.9072 47.2009 21.9165V22.3909V35.7677C47.2009 36.0282 47.4149 36.2514 47.6847 36.2514H49.5079C49.6288 36.2514 49.7312 36.2049 49.8149 36.1305C49.8242 36.1305 49.8242 36.1305 49.8242 36.1305C49.8242 36.1305 49.8242 36.1212 49.8335 36.1212C49.8707 36.084 49.8986 36.0468 49.9265 36.0003C49.9544 35.9445 49.9823 35.8793 49.9823 35.8142C50.0195 35.5165 50.2242 35.3491 50.3451 35.3956C50.3916 35.4049 50.4288 35.4328 50.4754 35.4607C50.5219 35.4886 50.5591 35.5165 50.5963 35.5445C50.7265 35.6282 51.2661 36.0096 51.694 36.1956C51.9079 36.2886 52.5777 36.5212 53.3684 36.5212C54.1591 36.5212 54.7172 36.3445 54.8475 36.3072C54.9777 36.27 55.1079 36.2328 55.2382 36.1677C55.8521 35.9072 56.3452 35.5445 56.7265 35.0793C57.0986 34.6328 57.4056 34.0933 57.6568 33.4793C58.0289 32.67 58.2335 31.7398 58.2335 30.7444C58.2335 29.1258 57.6754 27.6747 56.7638 26.6421Z" fill="#165680"/>
<path d="M63.4892 26.2508C63.4892 26.2229 63.4892 26.195 63.4892 26.167V25.8136C63.4892 25.5531 63.2659 25.3298 63.0055 25.3298H60.9682C60.7078 25.3298 60.4845 25.5531 60.4845 25.8136V36.7717C60.4752 37.0508 60.1403 37.4415 59.7496 37.5345C59.5636 37.5903 59.3868 37.609 59.2008 37.609C59.0147 37.5997 58.8938 37.6741 58.8194 37.8229C58.7915 37.8973 58.7729 37.9903 58.7636 38.102C58.745 38.2136 58.7636 39.3857 58.7729 39.4787C58.7822 39.5811 58.7915 39.6648 58.8194 39.7299C58.9031 39.8601 59.0519 39.9438 59.2659 39.9811C59.331 40.0183 60.6799 40.0183 61.5915 39.795C61.945 39.7113 62.2334 39.5438 62.4752 39.3578C62.7078 39.1717 62.9217 38.9485 63.1078 38.6601C63.3124 38.3252 63.4334 37.9066 63.452 37.395C63.4613 37.2462 63.4892 36.8369 63.4892 36.7903V26.8368C63.4892 26.781 63.4892 26.7252 63.4892 26.6694C63.4985 26.5298 63.4985 26.3903 63.4892 26.2508Z" fill="#165680"/>
<path d="M71.2741 34.3817C69.795 34.3817 68.595 32.791 68.595 30.8282C68.595 28.8561 69.795 27.2654 71.2741 27.2654C72.7531 27.2654 73.9438 28.8561 73.9438 30.8282C73.9438 32.791 72.7531 34.3817 71.2741 34.3817ZM75.4415 26.6421C75.3671 26.5584 75.302 26.4747 75.2276 26.4002C75.1066 26.2793 74.9764 26.1584 74.8369 26.0467C74.0741 25.4235 73.1531 25.0607 72.1578 25.0607C71.0787 25.0607 70.0927 25.4886 69.302 26.2049C69.274 26.2235 69.2554 26.2421 69.2275 26.2514C69.1996 26.27 69.1624 26.2886 69.1159 26.27C68.9857 26.2421 68.8461 26.1026 68.8461 25.8979V21.7491C68.8461 21.4886 68.6322 21.2839 68.3717 21.2839H66.3531C66.0833 21.2839 65.8787 21.4886 65.8787 21.7491V21.8979C65.8787 21.9072 65.8694 21.9072 65.8694 21.9165V22.3909L65.8787 35.7677C65.8787 36.0282 66.0926 36.2514 66.3531 36.2514H68.1857C68.2973 36.2514 68.4089 36.2049 68.4927 36.1305C68.502 36.1305 68.502 36.1212 68.502 36.1212C68.5392 36.084 68.5764 36.0468 68.595 36.0003H68.6043C68.6322 35.9445 68.6508 35.8793 68.6601 35.8142C68.6973 35.5165 68.8927 35.3491 69.0229 35.3956C69.0601 35.4049 69.1066 35.4328 69.1438 35.4607C69.1903 35.4886 69.2275 35.5165 69.274 35.5445C69.395 35.6282 69.9438 36.0096 70.3624 36.1956C70.5764 36.2886 71.2555 36.5212 72.0462 36.5212C72.8276 36.5212 73.3857 36.3445 73.5159 36.3072C73.6555 36.27 73.7857 36.2328 73.9066 36.1677C74.5206 35.9072 75.0229 35.5445 75.395 35.0793C75.7671 34.6328 76.0741 34.0933 76.3252 33.4793C76.6973 32.67 76.9113 31.7398 76.9113 30.7444C76.9113 29.1258 76.3438 27.6747 75.4415 26.6421Z" fill="#165680"/>
<path d="M61.9534 21.405C61.665 21.405 61.4045 21.4701 61.1906 21.6004C60.9766 21.7306 60.8092 21.9074 60.6882 22.1213C60.5673 22.3446 60.5022 22.5864 60.5022 22.8469C60.5022 23.1074 60.5673 23.3399 60.6789 23.5539C60.7906 23.7678 60.958 23.9446 61.1627 24.0748C61.3673 24.1957 61.6185 24.2702 61.8976 24.2702C62.2138 24.2702 62.4836 24.1957 62.6976 24.0748C62.9208 23.9446 63.0883 23.7678 63.1999 23.5539C63.3115 23.3399 63.3673 23.1074 63.3673 22.8469C63.3673 22.5864 63.3115 22.3446 63.1906 22.1213C63.079 21.9074 62.9115 21.7306 62.7069 21.6004C62.4929 21.4701 62.2417 21.405 61.9534 21.405Z" fill="#165680"/>
<path fill-rule="evenodd" clip-rule="evenodd" d="M46.5856 0C44.0647 4.29769 36.7158 7.54422 25.0321 9.8419C25.1251 8.94887 25.2181 8.06515 25.3111 7.18142C33.5065 6.39072 40.3996 3.70234 46.5856 0ZM45.581 4.26048C43.06 8.56748 35.7205 11.8047 24.0367 14.1024C24.1204 13.2187 24.2135 12.3256 24.3065 11.4419C32.5112 10.6512 39.3949 7.96282 45.581 4.26048ZM44.6507 7.99073C42.1298 12.2977 34.7902 15.5349 23.0972 17.8326C23.1902 16.9489 23.2832 16.0652 23.3762 15.1722C31.5809 14.3815 38.4647 11.6931 44.6507 7.99073Z" fill="url(#paint0_linear_548_10)"/>
<defs>
<linearGradient id="paint0_linear_548_10" x1="24.4991" y1="11.5311" x2="48.1077" y2="9.33734" gradientUnits="userSpaceOnUse">
<stop stop-color="#00418A"/>
<stop offset="1" stop-color="#FFCC00"/>
</linearGradient>
</defs>
</svg>
