<svg width="142" height="35" viewBox="0 0 142 35" fill="none" xmlns="http://www.w3.org/2000/svg">
<path d="M118.977 0.800338L123.427 3.02566L124.267 2.04964L119.328 0.117126L118.977 0.800338Z" fill="#B0182A"/>
<path d="M124.266 2.04964L125.594 3.02565L131.586 0.761295L130.845 0L124.266 2.04964Z" fill="#EA5B67"/>
<path d="M114.584 11.7317L116.029 12.3759L119.133 8.23759L118.137 7.55438L114.584 11.7317Z" fill="#1DBBEE"/>
<path d="M110.387 11.4584L110.348 12.1807L114.506 12.9615L114.584 11.7317L110.387 11.4584Z" fill="#00758E"/>
<path d="M132.699 7.16394L141.698 11.3023L141.718 12.4735L126.96 34.8243L126.277 34.9999L126.18 34.9609L125.984 34.4534L131.919 7.61291L132.699 7.16394Z" fill="#78B94D"/>
<path d="M135.725 12.981L126.277 35L126.96 34.8243L141.718 12.4735L135.725 12.981Z" fill="#5D9131"/>
<path d="M131.919 7.61296L125.965 34.4534L126.18 34.961L134.027 12.0441L131.919 7.59344V7.61296Z" fill="#177D3B"/>
<path d="M135.393 11.3804L135.725 12.9811L141.718 12.4735L141.698 11.3023L135.393 11.3804Z" fill="#A2C964"/>
<path d="M131.918 7.61291L134.027 12.044L135.393 11.3803L132.699 7.16394L131.918 7.61291Z" fill="#458C34"/>
<path d="M118.977 0.800335L119.328 0.117123L130.845 0L131.587 0.761295L126.062 19.1885L125.711 19.3837L125.321 19.1495L118.977 0.800335Z" fill="#E5233E"/>
<path d="M125.321 19.1495L125.711 19.3837L123.427 3.02567L118.977 0.800354L125.321 19.1495Z" fill="#76191C"/>
<path d="M125.594 3.02565L125.711 19.3837H125.731L126.062 19.1885L131.587 0.761292L125.594 3.02565Z" fill="#B41731"/>
<path fill-rule="evenodd" clip-rule="evenodd" d="M71.132 33.3213C71.1516 33.1065 71.1516 32.7747 71.1711 32.3062V23.4635L71.132 22.6046C71.132 22.4875 71.132 22.3508 71.1125 22.2337C71.1125 22.1752 71.093 22.1166 71.0735 22.058C71.0149 21.8433 70.8392 21.6676 70.644 21.5895C70.3512 21.4919 70.0584 21.4529 69.7461 21.4529V21.1601H74.8019C75.4656 21.1601 76.1292 21.1991 76.7929 21.2967C77.2809 21.3748 77.769 21.4919 78.2374 21.6871C79.2915 22.1947 79.8186 23.034 79.7991 24.2248C79.8186 25.9426 78.6864 27.0357 76.344 27.309L75.9536 27.3676C76.4806 27.4066 77.0077 27.5042 77.5152 27.6408C77.847 27.7189 78.1789 27.8361 78.4912 27.9922C79.721 28.6169 80.3456 29.6124 80.3261 30.9983C80.3261 32.6771 79.5258 33.7507 77.8666 34.2778C77.4176 34.3949 76.9686 34.473 76.5001 34.512C75.9145 34.5706 75.3094 34.6096 74.7043 34.6096H69.7461V34.3168C70.3317 34.3168 70.7221 34.2192 70.9173 34.0045C70.9954 33.9459 71.0344 33.8678 71.0735 33.7702C71.1125 33.6336 71.132 33.4774 71.132 33.3213ZM72.6937 21.57V27.1919H74.6652C76.9491 27.1724 78.1398 26.2159 78.1594 24.3224C78.1789 22.468 76.9296 21.57 74.4895 21.57H72.6937ZM78.5498 30.8617C78.5498 29.5538 78.0618 28.6169 77.1248 28.1093C76.7734 27.9532 76.4221 27.8361 76.0316 27.7775C75.5632 27.6994 75.0752 27.6408 74.5871 27.6604H72.6937V34.2192H74.5871C75.9536 34.2192 76.9686 33.9654 77.5738 33.4384C77.9056 33.1651 78.1398 32.7942 78.296 32.3843C78.4717 31.8963 78.5498 31.3692 78.5498 30.8617Z" fill="#231F20"/>
<path d="M87.5487 34.2387C87.4511 34.0435 87.373 33.8093 87.3535 33.1846V32.9894L87.2364 33.126C87.0998 33.2822 86.9631 33.4188 86.807 33.5555C86.6508 33.6921 86.4946 33.8093 86.3189 33.9264C85.9676 34.1997 85.5772 34.3949 85.1672 34.551C84.7573 34.6682 84.3474 34.7267 83.9179 34.7267C83.1176 34.7267 82.4929 34.5315 82.044 34.1606C81.7902 33.9264 81.595 33.6336 81.4584 33.3212C81.3217 32.9699 81.2437 32.599 81.2437 32.2281C81.2632 30.7836 82.1416 29.8466 83.957 29.4367C84.4645 29.3196 84.972 29.222 85.4796 29.1634C86.0066 29.0853 86.6117 29.0268 87.295 28.9877L87.3535 27.7384C87.3535 27.3871 87.334 27.0357 87.295 26.7038C87.2559 26.4696 87.1973 26.2158 87.0802 26.0011C86.8069 25.4936 86.2604 25.2203 85.4796 25.2203C84.2107 25.2203 83.5275 25.8254 83.4494 27.0162C83.4494 27.1528 83.4299 27.2895 83.4104 27.4261C83.3909 27.5042 83.3518 27.5627 83.2933 27.6018C83.0981 27.6994 82.8834 27.7579 82.6882 27.7384C82.0635 27.7384 81.8293 27.5627 81.8488 27.2504C81.8488 26.9186 81.9659 26.5867 82.1806 26.3134C82.4344 25.9816 82.7272 25.7083 83.0981 25.5131C83.8008 25.1227 84.6988 24.9275 85.7919 24.9275C87.0022 24.9275 87.822 25.2008 88.2514 25.7278C88.4467 25.9621 88.5833 26.2549 88.6419 26.5477C88.7395 26.9576 88.7785 27.3871 88.7785 27.797V27.9141V28.4021L88.759 29.6905L88.7395 31.4668L88.7199 32.3257C88.7199 32.7356 88.7395 33.048 88.759 33.3798C88.798 33.7312 88.9151 34.1021 89.1689 34.1997C89.5203 34.3168 89.8716 34.3753 90.2425 34.3558C90.5353 34.3558 90.8281 34.3168 91.1014 34.2192C91.3357 34.1216 91.4918 33.8873 91.5309 33.6336C91.5894 33.2041 91.6285 32.7747 91.6089 32.3452V27.309C91.6285 26.6258 91.5309 26.1378 91.3552 25.9035C91.1795 25.6693 90.8086 25.5521 90.3206 25.5521V25.2789L93.0144 25.0837V27.2114L93.1511 26.9576C93.4634 26.3525 93.9319 25.8254 94.498 25.4545C95.064 25.1422 95.7277 24.9861 96.3914 25.0056C97.5431 24.9861 98.3239 25.3765 98.7924 26.1378C98.9681 26.411 99.1048 26.7234 99.1633 27.0552C99.2414 27.5042 99.2804 27.9727 99.2609 28.4412V32.3257C99.2414 32.7552 99.2609 33.1846 99.339 33.614C99.3585 33.8678 99.5342 34.1021 99.7684 34.1997C100.1 34.2973 100.432 34.3363 100.764 34.3363C101.037 34.3363 101.311 34.2973 101.564 34.1997C101.799 34.0825 101.955 33.8678 101.974 33.614C102.033 33.1846 102.072 32.7552 102.052 32.3257V23.1902C102.072 22.7998 102.052 22.4094 101.994 22.0385C101.974 21.8042 101.799 21.609 101.584 21.5114C101.311 21.4334 101.018 21.3943 100.725 21.4138V21.1406L103.516 21.0039C103.477 21.6286 103.458 22.2532 103.438 22.8974C103.419 23.5806 103.419 24.1662 103.419 24.6737V30.8226L106.503 27.4456C106.932 26.9576 107.167 26.5477 107.186 26.2354C107.206 25.7864 106.757 25.5717 105.995 25.5521V25.2789H109.9V25.5521C109.685 25.5717 109.47 25.6107 109.275 25.6888C109.06 25.7669 108.865 25.8645 108.67 25.9621C108.455 26.0792 108.299 26.1963 108.162 26.2939C107.987 26.4306 107.811 26.5867 107.655 26.7624C107.459 26.9576 107.186 27.2504 106.815 27.6408L105.8 28.7535L108.455 32.9308C108.67 33.3212 108.963 33.6726 109.294 33.9849C109.568 34.1801 109.9 34.3168 110.231 34.3558V34.6291H107.811C107.752 34.4925 107.655 34.3168 107.538 34.1021L107.147 33.3993L106.854 32.8723L104.883 29.6709L103.341 31.4083V32.3843C103.321 32.8137 103.341 33.2432 103.399 33.6726C103.419 33.9264 103.594 34.1411 103.809 34.2582C104.082 34.3558 104.375 34.3949 104.668 34.3949V34.6681H96.45V34.3949C96.9966 34.3753 97.387 34.2973 97.5431 34.0825C97.6017 34.0045 97.6407 33.9069 97.6798 33.8093C97.7188 33.6726 97.7383 33.5555 97.7383 33.4188C97.7383 33.3017 97.7579 33.1065 97.7774 32.8723C97.7969 32.638 97.7969 32.4819 97.7969 32.3843V28.5973C97.7969 27.6603 97.6993 26.9771 97.4846 26.5477C97.1723 25.8645 96.5866 25.5131 95.7668 25.5131C94.8493 25.5131 94.1271 25.9426 93.5805 26.8015C93.3658 27.1528 93.2096 27.5237 93.112 27.9141C92.9949 28.3045 92.9363 28.7144 92.9363 29.1439V32.4038C92.9168 32.8332 92.9363 33.2627 93.0144 33.6921C93.0339 33.9459 93.2096 34.1801 93.4439 34.2777C93.7172 34.3753 94.0295 34.4144 94.3223 34.4144V34.6877H90.2816C89.9302 34.6877 89.247 34.7072 88.8956 34.7072C88.5638 34.7072 88.3686 34.6681 88.0367 34.6291C87.7634 34.512 87.6463 34.4339 87.5487 34.2387ZM82.7662 32.1695C82.7467 32.6966 82.9029 33.2236 83.2152 33.6531C83.508 34.024 83.9375 34.2387 84.4059 34.2387C85.421 34.2192 86.3385 33.6921 86.8655 32.8332C87.0412 32.5014 87.1583 32.1695 87.1974 31.7987C87.2754 31.2911 87.3145 30.7641 87.295 30.237V29.261C86.6117 29.3196 85.9481 29.3977 85.2844 29.5343C84.8549 29.6124 84.4255 29.7685 84.0351 29.9637C83.1957 30.3932 82.7662 31.135 82.7662 32.1695Z" fill="#231F20"/>
<path fill-rule="evenodd" clip-rule="evenodd" d="M3.66982 28.9682V32.3062C3.6503 32.7161 3.68935 33.1065 3.76743 33.4969C3.82599 33.7311 3.98215 33.9263 4.21639 34.0239C4.56776 34.1215 4.91913 34.1801 5.27049 34.1606V34.6291H0V34.1606C0.331846 34.1606 0.663691 34.1215 0.995537 34.0239C1.21026 33.9263 1.36642 33.7311 1.40546 33.4969C1.48355 33.1065 1.52259 32.6966 1.50307 32.3062V23.5025C1.52259 23.0926 1.48355 22.7021 1.42499 22.3117C1.38594 22.0775 1.22978 21.8823 1.01506 21.8042C0.702732 21.6871 0.390407 21.6481 0.0780817 21.6481V21.1796H5.07529C6.77356 21.1796 8.00334 21.4724 8.78415 22.0775C9.56497 22.6826 9.95537 23.6391 9.95537 24.9275C9.95537 26.7429 9.25264 27.9336 7.82766 28.4997C7.35917 28.6754 6.89068 28.7925 6.40267 28.8511C5.7585 28.9291 5.11433 28.9877 4.47016 28.9682H3.66982ZM3.66982 28.4411H4.52872C5.5633 28.4411 6.34411 28.2069 6.83212 27.6994C7.12493 27.387 7.32013 26.9966 7.43725 26.5867C7.57389 26.0792 7.65197 25.5521 7.63245 25.0055C7.63245 22.7997 6.65644 21.6871 4.72392 21.6871H3.6503V28.4411H3.66982Z" fill="#231F20"/>
<path fill-rule="evenodd" clip-rule="evenodd" d="M18.4274 29.5148H12.298C12.298 30.0613 12.337 30.6079 12.4151 31.1545C12.4737 31.5644 12.5908 31.9743 12.7469 32.3647C13.2545 33.536 14.0548 34.1411 15.1089 34.1411C15.6945 34.1411 16.2801 33.9654 16.7486 33.614C17.2757 33.2236 17.6856 32.6966 17.9784 32.0914L18.4078 32.3647C18.0565 33.126 17.5294 33.7702 16.8462 34.2387C16.163 34.6486 15.3822 34.8633 14.6014 34.8243C13.2154 34.8048 11.9271 34.3558 11.1268 33.4969C10.3264 32.638 9.91649 31.4278 9.89697 29.9052C9.91649 28.3826 10.3069 27.1723 11.0877 26.2744C11.8685 25.3764 13.0983 24.9275 14.4257 24.908C15.3041 24.908 16.163 25.1227 16.7681 25.5131C17.3928 25.9425 17.8613 26.5477 18.115 27.2699C18.2126 27.5627 18.2907 27.8555 18.3298 28.1483C18.3883 28.5973 18.4274 29.0268 18.4274 29.4757M12.298 28.9877H16.1435C16.124 28.4411 16.1044 27.9922 16.0459 27.6408C16.0068 27.3285 15.9483 27.0357 15.8312 26.7429C15.5188 25.8059 15.0113 25.3374 14.3476 25.3374C13.6058 25.3374 13.0397 25.8645 12.6689 26.9186C12.5713 27.2114 12.4932 27.5042 12.4346 27.8165C12.3761 28.2069 12.3175 28.5973 12.298 28.9877Z" fill="#231F20"/>
<path d="M18.8176 25.2008L22.2141 24.9665C22.2336 25.3179 22.2532 25.5912 22.2532 25.8254C22.2532 26.0597 22.2727 26.2549 22.2727 26.4306V26.9771C23.0145 25.6302 23.8929 24.947 24.947 24.9275C25.3569 24.908 25.7473 25.0641 26.0401 25.3179C26.3134 25.5717 26.4696 25.923 26.4696 26.2939C26.4696 26.6062 26.3524 26.899 26.0987 27.0942C25.8254 27.309 25.4935 27.4066 25.1617 27.4066C24.6932 27.4066 24.4199 27.2309 24.3028 26.821C24.2638 26.6453 24.1857 26.4696 24.0881 26.3134C24.01 26.2158 23.8929 26.1768 23.7758 26.1963H23.7367C23.3853 26.2353 23.0535 26.5086 22.7217 27.0552C22.5655 27.3285 22.4679 27.6408 22.3898 27.9336C22.3117 28.3045 22.2727 28.6754 22.2727 29.0658V32.4038C22.2532 32.7942 22.2922 33.1846 22.3508 33.575C22.3703 33.8092 22.5264 33.9849 22.7412 34.063C23.0535 34.1606 23.3853 34.1996 23.6977 34.1996V34.6291H18.7395V34.1996C19.0518 34.2192 19.3642 34.1801 19.657 34.0825C19.8717 33.9849 20.0083 33.7897 20.0474 33.575C20.1254 33.1846 20.145 32.7942 20.1254 32.4038V27.387C20.145 26.6453 20.0669 26.1573 19.9107 25.9425C19.7546 25.7278 19.3837 25.6107 18.8371 25.6497L18.8176 25.2008Z" fill="#231F20"/>
<path d="M30.5102 24.9665L30.5297 26.7624C31.252 25.5717 32.3061 24.947 33.6725 24.947C35.0389 24.947 35.9173 25.5717 36.2297 26.8405C36.5615 26.2549 37.0105 25.7669 37.5766 25.396C38.1036 25.0836 38.7088 24.9275 39.3334 24.947C40.407 24.947 41.1878 25.2984 41.6758 26.0011C41.8906 26.2939 42.0272 26.6062 42.1053 26.9576C42.2029 27.4456 42.2419 27.9336 42.2224 28.4411V32.4233C42.2029 32.8137 42.2419 33.2041 42.3005 33.5945C42.3395 33.8288 42.4762 34.0044 42.6909 34.102C42.9837 34.1996 43.296 34.2387 43.5888 34.2192V34.6486H38.7088V34.2192C39.0016 34.2387 39.2944 34.1996 39.5872 34.102C39.7824 34.0044 39.919 33.8092 39.9581 33.5945C40.0166 33.2041 40.0557 32.8137 40.0361 32.4233V28.4607C40.0361 27.5042 39.919 26.821 39.6848 26.411C39.4505 26.0011 39.0016 25.7473 38.5331 25.7864C37.8889 25.7864 37.3619 26.0987 36.9129 26.7819C36.542 27.3285 36.3468 27.9531 36.3468 28.6168V32.4428C36.3273 32.8332 36.3663 33.2236 36.4249 33.614C36.4444 33.8288 36.6006 34.024 36.7958 34.1216C37.0886 34.2192 37.3814 34.2582 37.6742 34.2387V34.6681H32.8331V34.2387C33.1259 34.2582 33.4187 34.2192 33.7115 34.1216C33.9068 34.024 34.0434 33.8288 34.0824 33.614C34.141 33.2236 34.1605 32.8332 34.1605 32.4428V28.4607C34.1605 26.6648 33.6725 25.7864 32.6965 25.8059C32.0718 25.8254 31.5057 26.1573 31.1544 26.6843C30.7249 27.2894 30.4907 28.0312 30.5102 28.773V32.4428C30.4907 32.8332 30.5297 33.2431 30.5883 33.6336C30.6078 33.8483 30.764 34.0435 30.9592 34.1411C31.2325 34.2387 31.5448 34.2582 31.8376 34.2582V34.6877H26.938V34.2582C27.2503 34.2777 27.5626 34.2387 27.8554 34.1411C28.0702 34.0435 28.2068 33.8483 28.2263 33.6336C28.3044 33.2431 28.3239 32.8527 28.3044 32.4428V27.4261C28.3239 26.6843 28.2654 26.2158 28.0897 26.0011C27.914 25.7864 27.5431 25.6888 26.977 25.6888V25.2593L30.5102 24.9665Z" fill="#231F20"/>
<path d="M56.4332 25.7864V31.8181C56.4332 32.15 56.4332 32.4623 56.4723 32.7942C56.4918 33.0089 56.5308 33.2236 56.6089 33.4383C56.6675 33.6335 56.8041 33.8092 56.9603 33.9263C57.1165 34.0435 57.2921 34.102 57.4873 34.1215C57.8778 34.1215 58.3072 33.9263 58.7562 33.5555L59.0099 34.0044C58.3267 34.59 57.4483 34.9219 56.5309 34.9024C55.5353 34.8828 54.8521 34.551 54.4812 33.9068C54.4031 33.7507 54.3641 33.575 54.325 33.4188C54.286 33.165 54.247 32.9308 54.247 32.677C54.2274 32.3647 54.2274 31.9548 54.2274 31.4082V25.7668H53.1929V25.2398C53.5442 25.2398 53.8761 25.1422 54.1884 24.986C54.4812 24.8103 54.735 24.5761 54.8911 24.2833C55.0473 24.0295 55.1839 23.7562 55.2816 23.4634C55.3987 23.0925 55.4963 22.7217 55.5548 22.3508L56.4528 22.2532C56.4333 22.4874 56.4332 22.7412 56.4137 22.9754C56.3942 23.2097 56.3942 23.522 56.3942 23.8538C56.3942 24.1857 56.3942 24.6542 56.3942 25.1812H58.5805V25.7668H56.4332V25.7864Z" fill="#231F20"/>
<path fill-rule="evenodd" clip-rule="evenodd" d="M53.1929 34.2387V34.6291C52.6658 34.6681 52.4511 34.6681 51.9045 34.6681C51.4751 34.6876 51.0456 34.6486 50.6357 34.512C50.421 34.4534 50.2453 34.3363 50.0891 34.1606C49.972 33.9654 49.8939 33.9654 49.8549 33.4188C49.4449 33.8873 48.9569 34.2582 48.3908 34.5315C47.8833 34.7657 47.3172 34.9024 46.7511 34.8829C45.8922 34.8633 45.209 34.6291 44.721 34.1606C44.233 33.6921 43.9792 33.0479 43.9792 32.2281C43.9792 30.686 44.9357 29.71 46.8683 29.3391C47.8443 29.1634 48.8398 29.0463 49.8354 28.9877V27.8165C49.8549 26.8795 49.7377 26.2158 49.5425 25.8645C49.3473 25.5131 48.9765 25.3179 48.4299 25.3374C47.8638 25.3179 47.4539 25.5326 47.2196 25.9621C47.122 26.1182 47.0635 26.2744 47.0244 26.4501C46.9854 26.7038 46.9463 26.9771 46.9268 27.2309C46.9463 27.4846 46.8292 27.7384 46.6535 27.9141C46.4193 28.0703 46.1265 28.1288 45.8337 28.1093C44.9943 28.1093 44.5649 27.8165 44.5649 27.2699C44.5649 26.9381 44.682 26.6258 44.8577 26.3525C45.0724 26.0401 45.3652 25.7864 45.6775 25.5912C46.4388 25.1227 47.4148 24.908 48.6446 24.908C49.8744 24.908 50.7723 25.1422 51.3189 25.6497C51.5727 25.884 51.7483 26.1963 51.8655 26.5282C51.9826 26.9771 52.0412 27.4261 52.0412 27.8946L52.0216 29.4562L52.0021 31.0178C51.9826 31.5254 51.9826 31.8572 51.9826 31.9938C51.9631 32.4623 51.9826 32.9503 52.0412 33.4188C52.0607 33.6531 52.1583 33.8678 52.334 34.0044C52.5877 34.1996 52.9 34.2582 53.1929 34.2387ZM49.8354 30.8031V29.3976C48.547 29.4952 47.6296 29.7295 47.083 30.1199C46.5364 30.5103 46.2827 31.1154 46.3022 31.9548C46.2827 32.5014 46.4193 33.0284 46.6926 33.4969C46.9268 33.8678 47.3172 34.0825 47.7662 34.0825C48.1371 34.0825 48.4884 33.9654 48.7813 33.7702C49.0936 33.5555 49.3473 33.2431 49.523 32.8918C49.6402 32.6185 49.7378 32.3452 49.7768 32.0524C49.8158 31.6425 49.8354 31.213 49.8354 30.8031Z" fill="#231F20"/>
<path fill-rule="evenodd" clip-rule="evenodd" d="M68.7507 34.2387V34.6291C68.2237 34.6681 68.0089 34.6681 67.4624 34.6681C67.0329 34.6877 66.6035 34.6486 66.1935 34.512C65.9788 34.4534 65.8031 34.3363 65.647 34.1606C65.5299 33.9654 65.4518 33.9654 65.4127 33.4188C65.0028 33.8873 64.5148 34.2582 63.9487 34.5315C63.4412 34.7657 62.8751 34.9024 62.309 34.8829C61.4306 34.8633 60.7669 34.6291 60.2789 34.1606C59.7909 33.6921 59.5371 33.048 59.5371 32.2281C59.5371 30.686 60.4936 29.71 62.4261 29.3391C63.4021 29.1634 64.3977 29.0463 65.3932 28.9877V27.8165C65.3932 26.8795 65.2956 26.2158 65.1004 25.8645C64.9052 25.5131 64.5148 25.3179 63.9877 25.3569C63.4217 25.3374 63.0117 25.5521 62.7775 25.9621C62.6799 26.1182 62.6213 26.2939 62.5823 26.4696C62.5237 26.7234 62.5042 26.9966 62.4847 27.2504C62.5042 27.5042 62.3871 27.7579 62.2114 27.9336C61.9576 28.0898 61.6843 28.1483 61.3915 28.1288C60.5522 28.1288 60.1227 27.8555 60.1227 27.2895C60.1227 26.9576 60.2203 26.6453 60.4155 26.372C60.6302 26.0597 60.9231 25.8059 61.2354 25.6107C61.9967 25.1422 62.9727 24.9275 64.2025 24.9275C65.4323 24.9275 66.3302 25.1617 66.8768 25.6693C67.1305 25.9035 67.3062 26.2158 67.4233 26.5477C67.5404 26.9966 67.599 27.4456 67.5795 27.9141L67.56 29.4757L67.5405 31.0569C67.5209 31.5644 67.5209 31.8963 67.5209 32.0329C67.5014 32.5014 67.5209 32.9894 67.5795 33.4579C67.5795 33.6921 67.6966 33.9069 67.8723 34.063C68.1261 34.2192 68.4384 34.2777 68.7507 34.2387ZM65.3737 30.8226V29.4367C64.0853 29.5148 63.1679 29.7685 62.6213 30.1589C62.0748 30.5494 61.821 31.1545 61.8405 31.9939C61.821 32.5404 61.9576 33.0675 62.2309 33.536C62.4652 33.9068 62.8556 34.1216 63.3045 34.1216C63.6754 34.1216 64.0268 34.0044 64.3196 33.8092C64.6319 33.5945 64.8857 33.2822 65.0418 32.9308C65.1785 32.6575 65.2566 32.3843 65.2956 32.0915C65.3542 31.662 65.3737 31.2326 65.3737 30.8226Z" fill="#231F20"/>
<path d="M110.387 11.4585L110.348 12.1807L124.266 28.4997L124.754 28.5778L124.813 28.5387L125.067 28.0898L119.133 8.23759L118.137 7.55438L110.387 11.4585Z" fill="#009EBA"/>
<path d="M124.266 28.4997L124.754 28.5778L114.506 12.9615L110.348 12.1807L124.266 28.4997Z" fill="#075975"/>
<path d="M116.029 12.3759L124.813 28.5387L125.067 28.0897L119.133 8.23755L116.029 12.3759Z" fill="#00758E"/>
</svg>
