<svg width="24" height="24" viewBox="0 0 24 24" fill="none" xmlns="http://www.w3.org/2000/svg">
<path fill-rule="evenodd" clip-rule="evenodd" d="M13.6347 20.727V12.7658H16.3581L16.7666 9.66219H13.6347V7.68102C13.6347 6.78274 13.888 6.17058 15.2027 6.17058L16.8769 6.16991V3.39397C16.5874 3.35707 15.5935 3.27246 14.4368 3.27246C12.0215 3.27246 10.3679 4.71854 10.3679 7.37364V9.66219H7.63623V12.7658H10.3679V20.727H13.6347Z" fill="#BBC3CF"/>
<mask id="mask0_276_986" style="mask-type:luminance" maskUnits="userSpaceOnUse" x="7" y="3" width="10" height="18">
<path fill-rule="evenodd" clip-rule="evenodd" d="M13.6347 20.727V12.7658H16.3581L16.7666 9.66219H13.6347V7.68102C13.6347 6.78274 13.888 6.17058 15.2027 6.17058L16.8769 6.16991V3.39397C16.5874 3.35707 15.5935 3.27246 14.4368 3.27246C12.0215 3.27246 10.3679 4.71854 10.3679 7.37364V9.66219H7.63623V12.7658H10.3679V20.727H13.6347Z" fill="white"/>
</mask>
<g mask="url(#mask0_276_986)">
</g>
</svg>
