<svg width="24" height="24" viewBox="0 0 24 24" fill="none" xmlns="http://www.w3.org/2000/svg">
<path opacity="0.4" d="M12 22C17.5228 22 22 17.5228 22 12C22 6.47715 17.5228 2 12 2C6.47715 2 2 6.47715 2 12C2 17.5228 6.47715 22 12 22Z" fill="#141522"/>
<path d="M12.33 17C12.15 17.06 11.84 17.06 11.66 17C10.1 16.47 6.59998 14.24 6.59998 10.46C6.59998 8.78999 7.93998 7.44 9.59998 7.44C10.58 7.44 11.45 7.90999 12 8.64999C12.54 7.91999 13.42 7.44 14.4 7.44C16.06 7.44 17.4 8.78999 17.4 10.46C17.4 14.24 13.9 16.47 12.33 17Z" fill="#141522"/>
</svg>
