<svg width="24" height="24" viewBox="0 0 24 24" fill="none" xmlns="http://www.w3.org/2000/svg">
<path d="M16.3994 2.18164C19.3874 2.18189 21.8185 4.61281 21.8184 7.60059V16.3994C21.8182 19.387 19.3873 21.8181 16.3994 21.8184H7.60059C4.61277 21.8184 2.18182 19.3873 2.18164 16.3994V7.60059C2.18164 4.61266 4.61266 2.18164 7.60059 2.18164H16.3994ZM7.60059 3.92383C5.57332 3.92383 3.92383 5.57332 3.92383 7.60059V16.3994C3.92401 18.4266 5.57344 20.0763 7.60059 20.0762H16.3994C18.4265 20.076 20.076 18.4265 20.0762 16.3994V7.60059C20.0762 5.57347 18.4266 3.92407 16.3994 3.92383H7.60059ZM12 6.85742C14.8357 6.85752 17.1426 9.16418 17.1426 12C17.1425 14.8357 14.8357 17.1425 12 17.1426C9.16421 17.1426 6.85745 14.8357 6.85742 12C6.85742 9.16412 9.16419 6.85742 12 6.85742ZM12 8.62793C10.1406 8.62793 8.62793 10.1406 8.62793 12C8.62803 13.8592 10.1408 15.3721 12 15.3721C13.8591 15.372 15.372 13.8592 15.3721 12C15.3721 10.1406 13.8593 8.62803 12 8.62793Z" fill="#BBC3CF"/>
<mask id="mask0_276_988" style="mask-type:luminance" maskUnits="userSpaceOnUse" x="2" y="2" width="20" height="20">
<path d="M16.3994 2.18164C19.3874 2.18189 21.8185 4.61281 21.8184 7.60059V16.3994C21.8182 19.387 19.3873 21.8181 16.3994 21.8184H7.60059C4.61277 21.8184 2.18182 19.3873 2.18164 16.3994V7.60059C2.18164 4.61266 4.61266 2.18164 7.60059 2.18164H16.3994ZM7.60059 3.92383C5.57332 3.92383 3.92383 5.57332 3.92383 7.60059V16.3994C3.92401 18.4266 5.57344 20.0763 7.60059 20.0762H16.3994C18.4265 20.076 20.076 18.4265 20.0762 16.3994V7.60059C20.0762 5.57347 18.4266 3.92407 16.3994 3.92383H7.60059ZM12 6.85742C14.8357 6.85752 17.1426 9.16418 17.1426 12C17.1425 14.8357 14.8357 17.1425 12 17.1426C9.16421 17.1426 6.85745 14.8357 6.85742 12C6.85742 9.16412 9.16419 6.85742 12 6.85742ZM12 8.62793C10.1406 8.62793 8.62793 10.1406 8.62793 12C8.62803 13.8592 10.1408 15.3721 12 15.3721C13.8591 15.372 15.372 13.8592 15.3721 12C15.3721 10.1406 13.8593 8.62803 12 8.62793Z" fill="white"/>
</mask>
<g mask="url(#mask0_276_988)">
</g>
</svg>
