<svg width="412" height="117" viewBox="0 0 412 117" fill="none" xmlns="http://www.w3.org/2000/svg">
<g clip-path="url(#clip0_285_2584)">
<path d="M403.123 19.1123C404.646 19.1123 406.104 19.4936 407.505 20.2515C408.901 21.0094 410 22.1016 410.802 23.5185C411.604 24.9355 412 26.423 412 27.9718C412 29.5206 411.609 30.9846 410.826 32.3827C410.043 33.7809 408.948 34.873 407.547 35.6544C406.146 36.4359 404.67 36.8266 403.128 36.8266C401.585 36.8266 400.109 36.4359 398.708 35.6544C397.307 34.873 396.212 33.7809 395.429 32.3827C394.646 30.9846 394.255 29.5112 394.255 27.9718C394.255 26.4325 394.656 24.9355 395.453 23.5185C396.25 22.1016 397.354 21.0094 398.75 20.2515C400.146 19.4936 401.609 19.1123 403.132 19.1123H403.123ZM403.132 20.8494C401.911 20.8494 400.741 21.1554 399.618 21.7626C398.495 22.3699 397.613 23.2455 396.972 24.3894C396.326 25.5286 396.005 26.7243 396.005 27.9765C396.005 29.2287 396.321 30.4009 396.948 31.526C397.576 32.6511 398.458 33.5314 399.585 34.1622C400.712 34.793 401.896 35.1084 403.132 35.1084C404.368 35.1084 405.561 34.793 406.684 34.1622C407.807 33.5314 408.689 32.6511 409.321 31.526C409.953 30.4009 410.274 29.2146 410.274 27.9765C410.274 26.7384 409.953 25.5333 409.307 24.3894C408.661 23.2502 407.778 22.3746 406.651 21.7626C405.524 21.1506 404.354 20.8494 403.132 20.8494ZM399.109 32.717V23.3161H401.019C402.811 23.3161 403.816 23.3255 404.033 23.3396C404.665 23.3961 405.161 23.5185 405.51 23.7162C405.863 23.9139 406.156 24.2152 406.392 24.6201C406.628 25.0249 406.745 25.4721 406.745 25.9664C406.745 26.6443 406.524 27.2233 406.08 27.7082C405.637 28.1931 405.014 28.4896 404.208 28.6026C404.495 28.7109 404.712 28.8286 404.868 28.9557C405.024 29.0828 405.236 29.3229 405.505 29.6806C405.576 29.7748 405.807 30.1561 406.198 30.8245L407.311 32.7217H404.948L404.161 31.1964C403.628 30.1702 403.189 29.5253 402.84 29.257C402.491 28.9886 402.052 28.8568 401.519 28.8568H401.019V32.7217H399.109V32.717ZM401.019 27.374H401.797C402.901 27.374 403.59 27.3316 403.854 27.2469C404.118 27.1621 404.33 27.0115 404.486 26.7996C404.642 26.5878 404.717 26.3477 404.717 26.0747C404.717 25.8017 404.642 25.5804 404.491 25.3733C404.34 25.1708 404.128 25.0202 403.849 24.9355C403.571 24.846 402.887 24.8037 401.797 24.8037H401.019V27.3692V27.374Z" fill="#E20613"/>
<path d="M-0.000165831 116.934C1.27814 113.107 2.58474 109.186 3.89606 105.264C3.95266 105.095 4.00455 104.925 4.06115 104.756C4.34889 103.866 4.60833 102.967 4.60833 102.967C4.60833 102.967 5.52342 103.193 6.49983 103.391C10.0187 104.111 13.5847 104.511 17.1696 103.824C20.8772 103.113 23.0847 100.609 24.1083 97.2379C25.4904 92.6811 26.613 88.0348 27.6461 83.3791C30.6225 70.0051 33.4951 56.6123 36.4008 43.2242C36.481 42.8523 36.4904 42.4663 36.5423 41.972C30.7404 42.3533 25.08 42.7252 19.264 43.1065C20.3583 41.2659 21.3536 39.5006 22.4668 37.8059C22.7074 37.4387 23.3583 37.2127 23.8489 37.1562C28.0753 36.6902 32.3064 36.243 36.547 35.8758C37.5234 35.7911 37.9149 35.4286 38.1649 34.4965C39.6602 28.8381 41.3017 23.2315 44.3206 18.138C50.08 8.417 58.5045 2.70681 69.8017 1.45461C74.514 0.932083 79.2593 0.706124 83.9904 0.338939C85.1413 0.249497 86.2876 0.13181 87.7074 0C87.0376 1.33693 86.4857 2.46673 85.9055 3.58711C84.1649 6.96238 82.3961 10.3188 80.6885 13.7129C80.3347 14.4143 79.9102 14.5038 79.1932 14.452C75.1791 14.146 71.1602 13.8589 67.1413 13.647C62.4715 13.3975 59.2781 15.6759 57.2734 19.715C56.4055 21.4662 55.6319 23.288 55.0234 25.1474C53.9574 28.4097 53.047 31.7238 52.0187 35.1932C52.9432 35.1085 53.7593 35.052 54.5753 34.9578C60.5329 34.2611 66.5564 33.8798 72.4291 32.7406C76.2404 32.0015 79.8395 30.1703 83.5187 28.7863C85.3064 28.1131 87.0612 27.3411 89.0046 26.5408V41.7319L89.3347 41.9108C89.8489 41.1482 90.4196 40.4138 90.863 39.6135C92.797 36.1112 95.1178 32.9148 97.9668 30.0809C101 27.0587 104.594 26.5926 108.523 27.5765C110.849 28.1602 112.278 29.8784 113.071 31.9874C114.321 35.2968 114.424 38.7427 113.306 42.1038C112.122 45.6627 108.788 47.1502 105.321 45.6344C103.618 44.8906 102.08 43.7514 100.514 42.7252C97.4055 40.6916 94.7876 41.2329 92.8395 44.4387C90.514 48.2706 89.3489 52.5309 89.2498 56.9324C89.0564 65.5942 89.1791 74.2654 89.198 82.9366C89.2027 85.4316 89.3017 85.4833 91.7829 85.8458C93.2876 86.0671 94.7876 86.3401 96.2923 86.5614C97.0046 86.6649 97.3489 86.9615 97.1696 87.7194C97.0895 88.063 97.08 88.4302 97.0517 88.7833C96.8583 91.1559 96.863 91.1323 94.3913 91.1323C86.4102 91.1323 78.4338 91.1323 70.4527 91.17C69.5706 91.17 68.9432 91.0664 68.9715 89.9978C68.9762 89.7813 68.8678 89.5647 68.83 89.3435C68.6036 87.9438 69.1712 87.0525 70.5329 86.6696C71.7404 86.3307 72.9291 85.8788 74.1555 85.6716C75.6178 85.4269 76.0895 84.7537 76.0753 83.2567C76.0046 75.4376 76.014 67.6184 76.0659 59.7993C76.1036 54.3998 76.2687 48.9956 76.3536 43.5961C76.3866 41.5107 75.9008 40.6539 73.8442 40.2726C71.6225 39.8583 69.3064 39.6041 67.0564 39.7359C62.0046 40.0325 56.9715 40.6162 51.9291 41.0634C50.9055 41.1529 50.4338 41.5766 50.1744 42.6546C46.0895 59.8087 42.0564 76.9816 37.7593 94.0839C35.613 102.628 30.8395 109.435 22.7451 113.516C18.3112 115.753 13.4668 116.52 8.58474 116.896C5.75455 117.113 2.89606 116.934 -0.00488281 116.934H-0.000165831Z" fill="#E20613"/>
<path d="M231.939 91.735C231.453 91.7962 230.986 91.9139 230.514 91.9139C223.118 91.9139 215.727 91.8856 208.33 91.9092C207.236 91.9092 206.981 91.509 207.029 90.4828C207.151 87.7477 207.109 87.7477 209.863 87.5783C210.312 87.55 210.76 87.5312 211.203 87.4747C212.604 87.2958 213.472 86.4438 213.623 85.0597C213.703 84.3065 213.75 83.5439 213.75 82.786C213.769 71.1726 213.797 59.5593 213.774 47.9459C213.76 42.5464 210.411 38.5027 205.396 37.7118C203.08 37.3446 200.958 37.9942 198.967 39.124C198.345 39.4771 197.764 39.9008 197.175 40.3009C193.764 42.6264 191.901 45.3426 192.057 49.9701C192.42 60.9386 192.019 71.9306 191.925 82.9131C191.925 83.4027 191.925 83.897 191.948 84.3866C192.062 86.7262 192.661 87.3382 195.029 87.55C195.609 87.6018 196.189 87.663 196.769 87.7054C198.911 87.856 198.562 87.8278 198.609 90.8405C198.618 91.4572 198.123 91.9656 197.505 91.9656C190.043 91.9562 182.58 91.9468 175.118 91.9421C173.42 91.9421 173.425 91.9421 173.453 90.2192C173.458 89.8237 173.462 89.4236 173.458 89.014C173.458 88.3738 173.944 87.8419 174.58 87.7807C175.486 87.6959 176.359 87.6159 177.236 87.5594C178.429 87.4841 179.17 87.0369 179.17 85.7C179.17 84.4525 179.33 83.205 179.33 81.9575C179.349 70.2971 179.349 58.6413 179.354 46.9808C179.354 44.0245 178.184 42.3534 175.321 41.2189C173.934 40.6681 173.071 38.2296 173.84 36.9256C173.981 36.6856 174.297 36.4831 174.576 36.4031C180.477 34.6566 186.08 32.1805 191.58 29.469C191.656 29.4313 191.75 29.4313 192.043 29.3701V39.1852C192.378 39.27 192.33 39.2559 192.665 39.3406C192.854 38.9546 192.981 38.5121 193.26 38.2155C195.892 35.3957 198.656 32.7266 202.208 31.0413C210.59 27.0682 223.09 31.0742 225.255 42.5323C225.76 45.192 226.005 47.9365 226.029 50.6433C226.113 62.0354 226.062 73.4228 226.076 84.815C226.076 87.4182 226.104 87.4182 228.727 87.5453C230.793 87.6457 231.863 88.7363 231.939 90.817C231.948 91.0806 231.939 91.3442 231.939 91.7444V91.735Z" fill="#E20613"/>
<path d="M116.637 60.2843C116.863 50.8034 119.382 42.5888 125.401 35.6688C134.67 25.0157 150.391 24.7145 160.057 36.0313C164.957 41.7697 167.476 48.4638 168.146 55.9204C168.92 64.5351 167.401 72.6415 162.693 79.9851C158.278 86.8675 152.151 91.2784 143.774 91.8668C135.66 92.4412 129.401 88.7929 124.429 82.7249C119.849 77.1277 117.566 70.5843 116.92 63.4336C116.811 62.2332 116.707 61.0328 116.641 60.2796L116.637 60.2843ZM130.292 60.3219C130.123 65.2601 130.585 70.443 131.976 75.5224C132.868 78.7706 134.057 81.9387 136.368 84.462C140.344 88.807 144.698 88.7599 148.74 84.4855C149.849 83.3133 150.674 81.7975 151.373 80.3241C153.863 75.0611 154.519 69.3745 154.835 63.6643C155.146 57.9917 154.698 52.3427 153.759 46.7361C153.104 42.8289 152.061 39.077 149.698 35.7959C146.066 30.7636 139.557 30.4623 135.792 35.3675C134.387 37.2034 133.274 39.4113 132.594 41.6238C130.759 47.5929 130.207 53.7738 130.292 60.3219Z" fill="#E20613"/>
<path d="M346.194 54.2776C345.33 54.3293 344.632 54.4141 343.929 54.4141C334.024 54.4141 324.118 54.4188 314.212 54.3764C313.156 54.3764 312.826 54.6212 312.896 55.7228C313.255 61.2682 313.708 66.7948 316.533 71.7706C319.01 76.1297 322.915 78.2999 327.835 78.6435C335.236 79.1614 340.033 75.2024 343.661 69.2992C344.014 68.7248 344.467 67.9293 345 67.8163C345.618 67.6798 346.684 69.9817 346.382 70.7491C345.401 73.2346 344.528 75.7861 343.311 78.154C340.953 82.7438 337.873 86.7498 333.241 89.3625C321.288 96.0895 306.868 90.2522 302.613 76.9865C299.519 67.3408 299.538 57.5775 302.142 47.9413C303.972 41.1719 307.533 35.3017 313.599 31.1355C322.359 25.1146 335.09 26.8847 341.458 36.8881C344.179 41.1672 345.184 45.9218 345.816 50.8223C345.953 51.8814 346.052 52.9453 346.198 54.2776H346.194ZM313.161 48.6286C319.58 48.6286 325.76 48.6286 331.944 48.6286C333.127 48.6286 333.505 47.8989 333.533 46.8962C333.642 43.1208 332.995 39.5149 331.038 36.2196C327.76 30.6977 321.033 30.3823 317.113 35.4805C314.142 39.3454 313.703 43.8881 313.161 48.6239V48.6286Z" fill="#E20613"/>
<path d="M350.698 88.6185C350.698 88.209 351.014 87.8653 351.425 87.8277C352.613 87.7241 353.722 87.6299 354.83 87.517C357.278 87.2628 357.924 86.5613 357.948 84.0899C358.052 72.7025 358.146 61.3198 358.241 49.9323C358.245 49.3062 358.241 48.6801 358.241 48.0541C358.255 43.9538 356.618 41.9673 352.557 41.0681C351.939 40.9316 350.948 40.7009 350.854 40.3291C350.585 39.284 350.651 38.1448 350.703 37.0479C350.712 36.8408 351.212 36.5584 351.528 36.4736C358.075 34.7319 364.387 32.364 370.637 29.21V44.1045C370.783 44.1515 370.778 44.1515 370.924 44.1986C371.226 43.7891 371.538 43.3842 371.83 42.9605C373.91 39.9525 375.858 36.8408 378.094 33.9551C379.873 31.6579 382.222 29.9443 385.259 29.6242C390.038 29.1158 393.184 31.2059 394.764 36.0452C395.712 38.9451 395.542 41.8919 394.208 44.66C392.193 48.8308 386.778 49.8241 383.005 46.7501C382.071 45.9922 381.226 45.1213 380.391 44.2504C379.604 43.4266 378.783 43.4642 377.844 43.9303C373.972 45.8509 372.028 49.2262 370.915 53.1711C370.604 54.2679 370.561 55.4683 370.557 56.617C370.528 65.8201 370.528 75.028 370.542 84.2311C370.542 85.8976 371.807 87.2863 373.467 87.4793C374.712 87.6252 375.962 87.7288 377.217 87.7382C378.108 87.7476 378.307 88.0724 378.307 88.9386C378.255 89.2446 378.274 89.56 378.259 89.8754C378.174 91.9561 378.174 91.9467 375.991 91.942C368.415 91.9326 360.844 91.9232 353.269 91.9279C350.717 91.9279 350.717 91.9467 350.703 89.4659C350.703 89.1881 350.703 88.9104 350.703 88.6138L350.698 88.6185Z" fill="#E20613"/>
<path d="M242.212 35.1652C240.694 35.1652 239.316 35.1228 237.944 35.1793C237.043 35.217 236.731 34.9439 236.637 33.993C236.637 32.0159 236.538 31.0697 237.448 30.1611C243.08 24.5404 248.387 16.7542 252.269 9.83887C253.043 8.45487 253.859 7.0944 254.887 5.81396V29.5774H269.953C269.25 31.3992 268.675 33.0609 267.939 34.6426C267.797 34.9486 267.826 35.0757 267.335 35.0757C263.929 35.0946 259.708 35.0569 256.302 35.0381C255.868 35.0381 255.434 35.0381 254.859 35.0381C254.859 36.0125 254.859 36.8128 254.859 37.6084C254.859 50.0267 254.844 62.4404 254.873 74.8587C254.873 76.4122 254.92 78.0081 255.269 79.5097C256.028 82.7862 258.462 84.0807 261.67 83.1016C264.486 82.2448 266.576 80.4042 268.363 78.1634C268.661 77.7915 268.958 77.4149 269.467 77.0948C269.288 79.5098 270.335 81.9671 268.717 84.2549C265.392 88.9577 261.019 91.8151 255.142 91.9611C248.363 92.1305 243.628 88.1198 242.599 81.4163C242.406 80.1405 242.311 78.8413 242.307 77.5514C242.283 63.8856 242.288 50.2197 242.278 36.5539C242.278 36.0784 242.241 35.603 242.222 35.1605L242.212 35.1652Z" fill="#E20613"/>
<path d="M289.811 29.4075C289.811 31.3659 289.811 33.15 289.811 34.9294C289.821 50.8784 289.83 66.8321 289.84 82.7811C289.84 83.3601 289.83 83.9438 289.887 84.5229C290.09 86.6412 290.934 87.4415 293.038 87.5404C293.396 87.5592 293.755 87.5827 294.113 87.5874C295.033 87.6016 295.514 87.9687 295.434 88.9761C295.391 89.5316 295.396 90.1483 295.406 90.7791C295.415 91.4099 294.924 91.8948 294.311 91.8948C294.245 91.8948 294.179 91.8948 294.113 91.8948C286.986 91.9089 279.858 91.8854 272.731 91.9372C271.368 91.9466 271.071 92.0172 271.071 90.6614C271.071 90.153 271.08 89.4516 271.085 88.8067C271.085 88.2747 271.505 87.8322 272.038 87.7899C273.127 87.7051 274.127 87.6251 275.132 87.5498C276.368 87.4603 277.151 86.966 277.127 85.5773C277.108 84.5982 277.245 83.6143 277.245 82.6351C277.259 70.0803 277.264 57.5254 277.259 44.9705C277.259 42.0707 276.33 41.0868 273.391 40.7903C270.325 40.4796 270.863 40.7102 270.783 37.8763C270.755 36.9019 270.939 36.3134 272.038 36.0686C278.056 34.7364 283.83 32.7216 289.174 29.5911C289.316 29.5064 289.495 29.4923 289.816 29.4028L289.811 29.4075Z" fill="#E20613"/>
<path d="M290.717 10.6765C290.778 13.0162 290.24 15.1863 288.877 17.1164C285.689 21.6403 280.476 21.5508 277.415 16.9187C274.462 12.4513 275.184 5.58774 278.939 2.43843C281.849 -5.54919e-05 285.962 0.385959 288.368 3.31873C289.972 5.28175 290.712 7.59313 290.712 10.6718L290.717 10.6765Z" fill="#E20613"/>
</g>
<defs>
<clipPath id="clip0_285_2584">
<rect width="412" height="117" fill="white"/>
</clipPath>
</defs>
</svg>
