<svg width="178" height="63" viewBox="0 0 178 63" fill="none" xmlns="http://www.w3.org/2000/svg">
<path d="M32.8298 45.233C29.9449 45.233 27.6857 44.6761 26.1149 43.5872L26.0961 43.5746C24.6505 42.5984 24.0059 41.3218 24.0059 39.4256C24.0059 33.1675 18.9932 28.061 12.779 27.9108C11.7902 26.6905 10.3008 25.9708 8.6862 25.9708C5.7762 25.9708 3.40439 28.3426 3.40439 31.2526C3.40439 34.1626 5.7762 36.5344 8.6862 36.5344C10.2194 36.5344 11.6713 35.8522 12.6601 34.7258C15.351 35.4955 17.2785 37.9737 17.2785 40.8587C17.2785 42.3418 16.3648 43.6873 15.0068 44.213C14.5187 44.4007 14.0368 44.5571 13.5737 44.6698C12.0343 45.0515 10.4322 45.2393 8.82388 45.2393C5.93891 45.2393 3.67974 44.6823 2.10897 43.5934L2.09019 43.5809C0.644581 42.6046 0 41.328 0 39.4318V5.81996C0 3.68598 1.32045 1.73347 3.27923 0.969994L3.32303 0.95122C4.96265 0.319159 6.70239 0 8.48594 0C10.9954 0 13.1294 0.607028 14.8128 1.80231C16.49 3.06643 17.2723 4.71229 17.2723 6.9777C17.2723 9.3933 18.211 11.6712 19.9257 13.3797C21.6341 15.0881 23.9058 16.0331 26.3277 16.0331H26.6343C27.6231 17.2346 29.1063 17.948 30.7083 17.948C33.6183 17.948 35.9901 15.5762 35.9901 12.6662C35.9901 9.75626 33.6183 7.38447 30.7083 7.38447C29.0562 7.38447 27.5167 8.16673 26.5279 9.44336C25.1136 9.30569 24.0059 8.1104 24.0059 6.6648V5.82622C24.0059 3.69224 25.3264 1.73973 27.2852 0.976252L27.329 0.957478C28.9686 0.325417 30.7083 0.00625793 32.4856 0.00625793C34.9951 0.00625793 37.1291 0.613286 38.8125 1.80857C40.4897 3.07269 41.272 4.71855 41.272 6.98396V41.7348C41.272 42.6797 40.7275 43.5308 39.8952 43.9001C37.9051 44.7824 35.527 45.233 32.8298 45.233Z" fill="#223BC9"/>
<path d="M30.7471 14.7971C31.9153 14.7971 32.8623 13.8501 32.8623 12.6819C32.8623 11.5137 31.9153 10.5667 30.7471 10.5667C29.5789 10.5667 28.6318 11.5137 28.6318 12.6819C28.6318 13.8501 29.5789 14.7971 30.7471 14.7971Z" fill="#223BC9"/>
<path d="M8.49828 33.6269C9.66649 33.6269 10.6135 32.6799 10.6135 31.5117C10.6135 30.3435 9.66649 29.3965 8.49828 29.3965C7.33008 29.3965 6.38306 30.3435 6.38306 31.5117C6.38306 32.6799 7.33008 33.6269 8.49828 33.6269Z" fill="#223BC9"/>
<path d="M53.9235 38.6979C53.6544 38.6979 53.4729 38.5165 53.4729 38.2474L53.5167 7.86464C53.5167 7.59555 53.6982 7.41406 53.9235 7.41406H59.2428C59.4681 7.41406 59.6496 7.59555 59.6496 7.82083V20.3995H72.1345V7.86464C72.1345 7.59555 72.3159 7.41406 72.585 7.41406H77.8606C78.1297 7.41406 78.3112 7.59555 78.3112 7.82083L78.2674 38.2474C78.2674 38.5165 78.1297 38.6979 77.8606 38.6979H72.585C72.3159 38.6979 72.1345 38.5165 72.1345 38.2474V25.6249H59.6496V38.2474C59.6496 38.5165 59.4681 38.6979 59.199 38.6979H53.9235Z" fill="#1A1A1A"/>
<path d="M124.704 27.0205V38.2474C124.704 38.5165 124.522 38.6979 124.253 38.6979H118.978C118.709 38.6979 118.527 38.5165 118.527 38.2474L118.571 7.86464C118.571 7.59555 118.709 7.41406 118.978 7.41406C122.945 7.41406 126.869 7.41406 130.83 7.41406C137.095 7.41406 140.837 11.5631 140.881 17.1954C140.837 21.7011 138.447 25.2182 134.297 26.4385L141.419 38.1598C141.644 38.5227 141.507 38.6979 141.15 38.6979H135.336C135.155 38.6979 134.973 38.6103 134.886 38.4727L128.352 27.0205C126.644 27.0205 125.474 27.0205 124.704 27.0205ZM124.704 13.2278V21.1191L130.924 21.1629C132.458 21.1629 134.71 20.1742 134.71 17.2392C134.71 14.3104 132.458 13.2716 130.924 13.2716L124.704 13.2278Z" fill="#1A1A1A"/>
<path d="M155.982 30.9904L153.141 38.3874C153.053 38.6127 152.871 38.7003 152.646 38.7003H147.371C147.058 38.7003 146.92 38.5188 147.008 38.2059L158.685 7.86698C158.773 7.59788 159.048 7.46021 159.317 7.46021H164.774C165.043 7.46021 165.269 7.59788 165.363 7.86698L176.99 38.2059C177.128 38.5188 176.99 38.7003 176.677 38.7003H171.358C171.176 38.7003 170.951 38.5626 170.907 38.3874L168.066 30.9967H155.982V30.9904ZM157.965 25.7649H166.082L162.021 15.1701L157.965 25.7649Z" fill="#1A1A1A"/>
<path d="M95.3045 13.2778H107.433C107.702 13.2778 107.839 13.1402 107.839 12.8711V7.86464C107.839 7.59555 107.658 7.41406 107.389 7.41406H89.5846C89.3155 7.41406 89.134 7.59555 89.134 7.86464V13.2716H95.3045V13.2778Z" fill="#223BC9"/>
<path d="M107.839 32.8443H95.3107V25.6288H105.274C105.543 25.6288 105.724 25.4473 105.724 25.1782V20.3095C105.724 20.0404 105.543 19.8589 105.274 19.8589H95.3107H89.134V38.2512C89.134 38.5203 89.3155 38.7018 89.5846 38.7018H107.883C108.108 38.7018 108.29 38.5203 108.29 38.295V33.2886C108.29 33.0195 108.108 32.8443 107.839 32.8443Z" fill="#1A1A1A"/>
<path d="M175.964 62.9851C175.645 62.9851 175.384 62.8788 175.18 62.6662C174.976 62.4535 174.875 62.1921 174.875 61.882C174.875 61.5718 174.976 61.3105 175.18 61.0978C175.384 60.8851 175.645 60.7788 175.964 60.7788C176.275 60.7788 176.531 60.8851 176.735 61.0978C176.939 61.3105 177.041 61.5718 177.041 61.882C177.041 62.1921 176.939 62.4535 176.735 62.6662C176.531 62.8788 176.275 62.9851 175.964 62.9851Z" fill="#1A1A1A"/>
<path d="M165.377 62.863V53.5193H167.185V62.863H165.377ZM171.239 62.863V53.5193H173.046V62.863H171.239ZM166.52 58.8358V57.2408H171.744V58.8358H166.52Z" fill="#1A1A1A"/>
<path d="M160.6 62.9863C159.918 62.9863 159.284 62.8667 158.699 62.6275C158.114 62.3794 157.601 62.0382 157.157 61.6041C156.723 61.161 156.387 60.6471 156.147 60.0623C155.917 59.4775 155.802 58.8484 155.802 58.1749C155.802 57.5015 155.917 56.8724 156.147 56.2876C156.387 55.7028 156.723 55.1933 157.157 54.7591C157.601 54.3249 158.11 53.9838 158.686 53.7357C159.271 53.4876 159.909 53.3635 160.6 53.3635C161.344 53.3635 162 53.4876 162.567 53.7357C163.134 53.9749 163.635 54.3072 164.069 54.7325L162.846 55.9553C162.589 55.6718 162.275 55.4502 161.902 55.2907C161.53 55.1313 161.096 55.0515 160.6 55.0515C160.166 55.0515 159.767 55.1268 159.404 55.2775C159.049 55.4192 158.739 55.6319 158.473 55.9154C158.207 56.1901 158.004 56.5224 157.862 56.9123C157.72 57.2933 157.649 57.7142 157.649 58.1749C157.649 58.6446 157.72 59.0699 157.862 59.4509C158.004 59.8319 158.207 60.1642 158.473 60.4477C158.739 60.7224 159.049 60.9351 159.404 61.0857C159.767 61.2363 160.166 61.3116 160.6 61.3116C161.123 61.3116 161.57 61.2319 161.942 61.0724C162.323 60.9129 162.642 60.687 162.899 60.3946L164.122 61.6173C163.688 62.0515 163.183 62.3882 162.607 62.6275C162.031 62.8667 161.362 62.9863 160.6 62.9863Z" fill="#1A1A1A"/>
<path d="M148.435 62.863V53.5193H150.242V62.863H148.435ZM149.764 62.863V61.268H154.934V62.863H149.764ZM149.764 58.8623V57.3206H154.469V58.8623H149.764ZM149.764 55.1142V53.5193H154.868V55.1142H149.764Z" fill="#1A1A1A"/>
<path d="M142.391 62.863V53.7187H144.212V62.863H142.391ZM139.414 55.1275V53.5193H147.189V55.1275H139.414Z" fill="#1A1A1A"/>
<path d="M128.109 62.863V53.5193H129.916V62.863H128.109ZM133.97 62.863V53.5193H135.778V62.863H133.97ZM129.252 58.8358V57.2408H134.475V58.8358H129.252Z" fill="#1A1A1A"/>
<path d="M122.088 62.9863C121.424 62.9863 120.799 62.8667 120.214 62.6275C119.638 62.3794 119.129 62.0338 118.686 61.5908C118.251 61.1477 117.91 60.6382 117.662 60.0623C117.423 59.4775 117.303 58.8484 117.303 58.1749C117.303 57.4927 117.427 56.8635 117.675 56.2876C117.923 55.7028 118.269 55.1933 118.712 54.7591C119.155 54.3161 119.673 53.9749 120.267 53.7357C120.861 53.4876 121.503 53.3635 122.194 53.3635C122.965 53.3635 123.674 53.5097 124.321 53.8021C124.968 54.0857 125.504 54.4888 125.929 55.0116L124.706 56.2344C124.414 55.8534 124.051 55.561 123.617 55.3572C123.182 55.1534 122.704 55.0515 122.181 55.0515C121.587 55.0515 121.06 55.1844 120.599 55.4502C120.148 55.7072 119.793 56.0705 119.536 56.5401C119.279 57.0009 119.151 57.5414 119.151 58.1616C119.151 58.7819 119.275 59.3313 119.523 59.8097C119.78 60.2794 120.125 60.6471 120.56 60.9129C121.003 61.1787 121.508 61.3116 122.075 61.3116C122.66 61.3116 123.16 61.2053 123.577 60.9927C123.993 60.7711 124.312 60.4522 124.534 60.0357C124.755 59.6104 124.866 59.092 124.866 58.4806L126.049 59.2914L121.968 59.2515V57.6832H126.727V57.9357C126.727 59.0521 126.527 59.987 126.129 60.7401C125.73 61.4844 125.181 62.0471 124.48 62.4281C123.789 62.8003 122.992 62.9863 122.088 62.9863Z" fill="#1A1A1A"/>
<path d="M114.042 62.863V53.5193H115.85V62.863H114.042Z" fill="#1A1A1A"/>
<path d="M104.46 62.863V53.5193H106.268V62.863H104.46ZM110.322 62.863V53.5193H112.129V62.863H110.322ZM105.603 58.8358V57.2408H110.827V58.8358H105.603Z" fill="#1A1A1A"/>
<path d="M98.9595 62.9851C98.6405 62.9851 98.3791 62.8788 98.1753 62.6662C97.9715 62.4535 97.8696 62.1921 97.8696 61.882C97.8696 61.5718 97.9715 61.3105 98.1753 61.0978C98.3791 60.8851 98.6405 60.7788 98.9595 60.7788C99.2696 60.7788 99.5266 60.8851 99.7304 61.0978C99.9342 61.3105 100.036 61.5718 100.036 61.882C100.036 62.1921 99.9342 62.4535 99.7304 62.6662C99.5266 62.8788 99.2696 62.9851 98.9595 62.9851Z" fill="#1A1A1A"/>
<path d="M88.3638 62.863V53.5193H90.1714V62.863H88.3638ZM94.2252 62.863V53.5193H96.0328V62.863H94.2252ZM89.5068 58.8358V57.2408H94.7303V58.8358H89.5068Z" fill="#1A1A1A"/>
<path d="M83.5872 62.9863C82.9049 62.9863 82.2714 62.8667 81.6866 62.6275C81.1017 62.3794 80.5878 62.0382 80.1448 61.6041C79.7106 61.161 79.3739 60.6471 79.1346 60.0623C78.9043 59.4775 78.7891 58.8484 78.7891 58.1749C78.7891 57.5015 78.9043 56.8724 79.1346 56.2876C79.3739 55.7028 79.7106 55.1933 80.1448 54.7591C80.5878 54.3249 81.0973 53.9838 81.6733 53.7357C82.2581 53.4876 82.8961 53.3635 83.5872 53.3635C84.3315 53.3635 84.9872 53.4876 85.5543 53.7357C86.1214 53.9749 86.622 54.3072 87.0562 54.7325L85.8334 55.9553C85.5765 55.6718 85.2619 55.4502 84.8897 55.2907C84.5176 55.1313 84.0834 55.0515 83.5872 55.0515C83.153 55.0515 82.7543 55.1268 82.391 55.2775C82.0366 55.4192 81.7264 55.6319 81.4606 55.9154C81.1948 56.1901 80.991 56.5224 80.8492 56.9123C80.7074 57.2933 80.6366 57.7142 80.6366 58.1749C80.6366 58.6446 80.7074 59.0699 80.8492 59.4509C80.991 59.8319 81.1948 60.1642 81.4606 60.4477C81.7264 60.7224 82.0366 60.9351 82.391 61.0857C82.7543 61.2363 83.153 61.3116 83.5872 61.3116C84.11 61.3116 84.5575 61.2319 84.9296 61.0724C85.3106 60.9129 85.6296 60.687 85.8866 60.3946L87.1094 61.6173C86.6752 62.0515 86.1701 62.3882 85.5942 62.6275C85.0182 62.8667 84.3492 62.9863 83.5872 62.9863Z" fill="#1A1A1A"/>
<path d="M73.6773 62.9959C72.9418 62.9959 72.2861 62.8364 71.7102 62.5174C71.1431 62.1896 70.6956 61.7421 70.3678 61.175C70.0399 60.6079 69.876 59.9655 69.876 59.2478V53.5193H71.6836V59.3009C71.6836 59.7174 71.7678 60.0763 71.9361 60.3775C72.1133 60.6788 72.3526 60.9136 72.6538 61.082C72.964 61.2415 73.3051 61.3212 73.6773 61.3212C74.0583 61.3212 74.395 61.2415 74.6874 61.082C74.9798 60.9136 75.2102 60.6788 75.3786 60.3775C75.5558 60.0763 75.6444 59.7218 75.6444 59.3142V53.5193H77.4653V59.2611C77.4653 59.9788 77.3014 60.6212 76.9735 61.1883C76.6457 61.7465 76.1982 62.1896 75.6311 62.5174C75.0729 62.8364 74.4216 62.9959 73.6773 62.9959Z" fill="#1A1A1A"/>
<path d="M63.7456 62.9996C63.0633 62.9996 62.4253 62.8756 61.8317 62.6275C61.2468 62.3794 60.7329 62.0382 60.2899 61.6041C59.8557 61.161 59.5145 60.6471 59.2664 60.0623C59.0183 59.4686 58.8943 58.8351 58.8943 58.1616C58.8943 57.4882 59.0139 56.8635 59.2532 56.2876C59.5013 55.7028 59.8424 55.1933 60.2766 54.7591C60.7196 54.3161 61.2336 53.9749 61.8184 53.7357C62.4032 53.4876 63.0367 53.3635 63.719 53.3635C64.4102 53.3635 65.0481 53.4876 65.633 53.7357C66.2178 53.9749 66.7273 54.3161 67.1614 54.7591C67.6045 55.1933 67.9501 55.7028 68.1982 56.2876C68.4463 56.8724 68.5703 57.5015 68.5703 58.1749C68.5703 58.8484 68.4463 59.4775 68.1982 60.0623C67.9501 60.6471 67.6045 61.161 67.1614 61.6041C66.7273 62.0382 66.2178 62.3794 65.633 62.6275C65.057 62.8756 64.4279 62.9996 63.7456 62.9996ZM63.719 61.3117C64.3216 61.3117 64.8443 61.1787 65.2874 60.9129C65.7304 60.6471 66.076 60.2794 66.3241 59.8097C66.5811 59.3401 66.7095 58.7908 66.7095 58.1616C66.7095 57.7009 66.6387 57.28 66.4969 56.899C66.3551 56.518 66.1513 56.1901 65.8855 55.9154C65.6197 55.6319 65.3051 55.4148 64.9418 55.2642C64.5785 55.1135 64.1709 55.0382 63.719 55.0382C63.1342 55.0382 62.6158 55.1711 62.1639 55.4369C61.7209 55.6939 61.3709 56.0572 61.1139 56.5268C60.8658 56.9964 60.7418 57.5414 60.7418 58.1616C60.7418 58.6313 60.8127 59.061 60.9544 59.4509C61.1051 59.8408 61.3089 60.173 61.5658 60.4477C61.8317 60.7224 62.1462 60.9351 62.5095 61.0857C62.8817 61.2363 63.2848 61.3117 63.719 61.3117Z" fill="#1A1A1A"/>
<path d="M53.8803 62.863V53.7187H55.7012V62.863H53.8803ZM50.9031 55.1275V53.5193H58.6785V55.1275H50.9031Z" fill="#1A1A1A"/>
<path d="M39.5215 62.863V53.5193H40.7842L41.3291 55.3269V62.863H39.5215ZM45.981 62.863L40.4386 55.6857L40.7842 53.5193L46.3266 60.6965L45.981 62.863ZM45.981 62.863L45.4627 61.1085V53.5193H47.2836V62.863H45.981Z" fill="#1A1A1A"/>
<path d="M29.4395 62.863L33.2009 53.5193H34.6762L38.4243 62.863H36.4971L33.5996 55.194H34.2642L31.3268 62.863H29.4395ZM31.4331 61.1218V59.6066H36.4572V61.1218H31.4331Z" fill="#1A1A1A"/>
<path d="M18.8337 62.863V53.5193H20.1097L23.8977 59.5801H23.1667L26.9414 53.5193H28.2174V62.863H26.423V56.6161L26.7686 56.7225L24.137 60.9491H22.9142L20.2825 56.7225L20.6414 56.6161V62.863H18.8337Z" fill="#1A1A1A"/>
<path d="M13.2605 62.9959C12.5251 62.9959 11.8694 62.8364 11.2934 62.5174C10.7263 62.1896 10.2789 61.7421 9.951 61.175C9.62315 60.6079 9.45923 59.9655 9.45923 59.2478V53.5193H11.2668V59.3009C11.2668 59.7174 11.351 60.0763 11.5194 60.3775C11.6966 60.6788 11.9358 60.9136 12.2371 61.082C12.5472 61.2415 12.8884 61.3212 13.2605 61.3212C13.6415 61.3212 13.9783 61.2415 14.2707 61.082C14.5631 60.9136 14.7935 60.6788 14.9618 60.3775C15.139 60.0763 15.2276 59.7218 15.2276 59.3142V53.5193H17.0485V59.2611C17.0485 59.9788 16.8846 60.6212 16.5568 61.1883C16.2289 61.7465 15.7814 62.1896 15.2143 62.5174C14.6561 62.8364 14.0048 62.9959 13.2605 62.9959Z" fill="#1A1A1A"/>
<path d="M0 62.863V53.5193H1.80761V62.863H0ZM5.86145 62.863V53.5193H7.66906V62.863H5.86145ZM1.14305 58.8358V57.2408H6.36651V58.8358H1.14305Z" fill="#1A1A1A"/>
</svg>
