<svg width="38" height="38" viewBox="0 0 38 38" fill="none" xmlns="http://www.w3.org/2000/svg">
<path d="M30.6692 7.74244L21.3908 3.60994C20.0292 3.00827 17.9708 3.00827 16.6092 3.60994L7.33083 7.74244C4.98749 8.78744 4.63916 10.2124 4.63916 10.9724C4.63916 11.7324 4.98749 13.1574 7.33083 14.2024L16.6092 18.3349C17.29 18.6358 18.145 18.7941 19 18.7941C19.855 18.7941 20.71 18.6358 21.3908 18.3349L30.6692 14.2024C33.0125 13.1574 33.3608 11.7324 33.3608 10.9724C33.3608 10.2124 33.0283 8.78744 30.6692 7.74244Z" fill="#EF5944"/>
<path opacity="0.4" d="M19 26.9801C18.3983 26.9801 17.7967 26.8534 17.2425 26.6159L6.57084 21.8659C4.94001 21.1376 3.67334 19.1901 3.67334 17.4009C3.67334 16.7517 4.19584 16.2292 4.84501 16.2292C5.49417 16.2292 6.01667 16.7517 6.01667 17.4009C6.01667 18.2559 6.72917 19.3642 7.52084 19.7126L18.1925 24.4626C18.6992 24.6842 19.285 24.6842 19.7917 24.4626L30.4633 19.7126C31.255 19.3642 31.9675 18.2717 31.9675 17.4009C31.9675 16.7517 32.49 16.2292 33.1392 16.2292C33.7883 16.2292 34.3108 16.7517 34.3108 17.4009C34.3108 19.1742 33.0442 21.1376 31.4133 21.8659L20.7417 26.6159C20.2033 26.8534 19.6017 26.9801 19 26.9801Z" fill="#EF5944"/>
<path opacity="0.4" d="M19 34.8334C18.3983 34.8334 17.7967 34.7067 17.2425 34.4692L6.57084 29.7192C4.81334 28.9434 3.67334 27.1859 3.67334 25.2542C3.67334 24.605 4.19584 24.0825 4.84501 24.0825C5.49417 24.0825 6.01667 24.605 6.01667 25.2542C6.01667 26.2517 6.60251 27.1542 7.52084 27.5659L18.1925 32.3159C18.6992 32.5375 19.285 32.5375 19.7917 32.3159L30.4633 27.5659C31.3658 27.17 31.9675 26.2517 31.9675 25.2542C31.9675 24.605 32.49 24.0825 33.1392 24.0825C33.7883 24.0825 34.3108 24.605 34.3108 25.2542C34.3108 27.1859 33.1708 28.9275 31.4133 29.7192L20.7417 34.4692C20.2033 34.7067 19.6017 34.8334 19 34.8334Z" fill="#EF5944"/>
</svg>
