<svg width="311" height="58" viewBox="0 0 311 58" fill="none" xmlns="http://www.w3.org/2000/svg">
<g clip-path="url(#clip0_285_2311)">
<path d="M49.7383 1.28319L45.6932 11.446L49.6359 19.6071L53.937 9.08496H63.3074V45.0655C63.3074 46.4513 62.7441 47.7345 61.7713 48.7097C60.7984 49.685 59.4671 50.2496 58.0846 50.2496C57.0093 50.2496 55.1147 49.6336 54.3467 48.1451L48.6118 35.5186L48.5606 35.5699L39.1391 14.885L39.1903 14.8336L35.1964 6.21062C32.9434 1.69381 28.3863 0 24.6484 0C21.2177 0 17.8895 1.38584 15.4829 3.79823C13.0251 6.21062 11.6426 9.5469 11.6426 12.9858L11.7962 56.7168H31.4585L36.5277 45.7327L32.585 37.5717L27.2598 48.915H19.4256V12.9858C19.4256 11.6 19.9888 10.3168 20.9617 9.34159C21.9346 8.36637 23.2659 7.80177 24.6484 7.80177C25.314 7.80177 27.6694 7.95575 28.5399 10.2142L32.9434 19.8637L34.3771 23.0973L43.7987 43.7823C45.4372 47.3239 47.2805 51.2248 48.0486 52.9186C49.6871 56.3062 53.937 58.0513 58.0846 58.0513C59.7743 58.0513 61.464 57.692 63.0513 57.0761C64.6387 56.4088 66.0724 55.485 67.2501 54.2531C68.479 53.0726 69.4006 51.6354 70.0663 50.0442C70.7319 48.4531 71.0392 46.7593 71.0392 45.0655V1.28319H49.7383Z" fill="#FC5E02"/>
<path d="M84.1987 47.94V11.2408C84.1987 11.1382 84.1987 11.0869 84.1987 10.9842C84.2499 10.8816 84.2499 10.8302 84.3523 10.7789C84.4035 10.7276 84.506 10.6762 84.5572 10.6249C84.6596 10.5736 84.7108 10.5736 84.8132 10.6249H92.545C92.6986 10.6249 92.8522 10.6762 93.0058 10.7276C93.1594 10.8302 93.2618 10.9329 93.313 11.0355L110.006 37.0585H110.313V11.2408C110.313 11.1382 110.313 11.0869 110.313 10.9842C110.364 10.8816 110.364 10.8302 110.466 10.7789C110.518 10.7276 110.62 10.6762 110.671 10.6249C110.774 10.5736 110.825 10.5736 110.927 10.6249H117.379C117.481 10.6249 117.533 10.6249 117.635 10.6249C117.737 10.6762 117.789 10.6762 117.84 10.7789C117.891 10.8302 117.942 10.9329 117.993 10.9842C118.045 11.0869 118.045 11.1382 117.993 11.2408V48.0939C117.993 48.1966 117.993 48.2479 117.993 48.3506C117.942 48.4532 117.942 48.5046 117.84 48.5559C117.789 48.6072 117.686 48.6586 117.635 48.7099C117.533 48.7612 117.481 48.7612 117.379 48.7099H109.647C109.493 48.6586 109.391 48.6072 109.289 48.5046C109.186 48.4019 109.135 48.2479 109.084 48.1453L92.1353 22.0196H91.9305V47.9913C91.9305 48.0939 91.9305 48.1453 91.9305 48.2479C91.8793 48.3506 91.8793 48.4019 91.7769 48.4532C91.6745 48.5046 91.6233 48.5559 91.5721 48.6072C91.4697 48.6585 91.4185 48.6585 91.3161 48.6072H84.8644C84.762 48.6072 84.7108 48.6072 84.6084 48.6072C84.506 48.5559 84.4548 48.5559 84.4036 48.4532C84.3523 48.3506 84.3011 48.2993 84.2499 48.2479C84.1987 48.1453 84.1987 48.0426 84.1987 47.94Z" fill="#FAFAFA"/>
<path d="M160.441 39.7788V25.0991H156.601C156.499 25.0991 156.447 25.0991 156.345 25.0991C156.243 25.0478 156.191 25.0478 156.14 24.9965C156.089 24.9451 156.038 24.8425 155.987 24.7911C155.935 24.6885 155.935 24.6372 155.987 24.5345V20.1203C155.987 19.7097 156.191 19.5044 156.601 19.5044H160.441V11.5487C160.441 11.446 160.441 11.3947 160.493 11.292C160.544 11.2407 160.544 11.138 160.646 11.0867C160.697 11.0354 160.749 10.9841 160.851 10.9327C160.902 10.8814 161.005 10.8814 161.107 10.8814L167.764 10.8301C167.866 10.8301 167.917 10.8301 168.02 10.8301C168.122 10.8814 168.173 10.8814 168.224 10.9841C168.276 11.0354 168.327 11.138 168.378 11.1894C168.429 11.292 168.429 11.3434 168.378 11.446V18.7345C168.378 19.0425 168.634 19.2478 168.89 19.2478H176.059C176.161 19.2478 176.212 19.2478 176.315 19.2478C176.417 19.2991 176.468 19.2991 176.519 19.4018C176.571 19.4531 176.622 19.5557 176.673 19.6071C176.724 19.7097 176.724 19.7611 176.673 19.8637V24.4318C176.673 24.5345 176.673 24.5858 176.622 24.6885C176.571 24.7911 176.519 24.8425 176.468 24.8938C176.417 24.9451 176.315 24.9965 176.263 24.9965C176.161 25.0478 176.11 25.0478 176.007 24.9965H168.327V42.0885C168.327 42.3965 168.583 42.6018 168.839 42.6018H176.007C176.11 42.6018 176.161 42.6018 176.263 42.6018C176.366 42.6531 176.417 42.6531 176.468 42.7044C176.519 42.7557 176.571 42.8071 176.622 42.9097C176.673 43.0124 176.673 43.0637 176.673 43.1664V47.7345C176.673 47.8372 176.673 47.8885 176.673 47.9911C176.622 48.0938 176.622 48.1451 176.519 48.1965C176.417 48.2478 176.366 48.2991 176.315 48.3504C176.212 48.4018 176.161 48.4018 176.059 48.3504H169.248C168.071 48.5044 166.893 48.3504 165.767 47.9911C164.64 47.6319 163.616 46.9646 162.797 46.1434C161.926 45.3221 161.312 44.2956 160.902 43.2177C160.441 42.1398 160.288 40.9593 160.441 39.7788Z" fill="#FAFAFA"/>
<path d="M248.563 47.9396V28.1272C248.41 26.9467 248.512 25.7149 248.87 24.5856C249.28 23.4564 249.895 22.3786 250.765 21.5573C251.635 20.6848 252.66 20.0688 253.837 19.6582C255.015 19.2476 256.244 19.1449 257.422 19.2989H266.28C266.382 19.2989 266.433 19.2989 266.536 19.2989C266.638 19.3502 266.689 19.3503 266.741 19.4529C266.792 19.5042 266.843 19.6069 266.894 19.6582C266.945 19.7609 266.945 19.8122 266.894 19.9149V25.0476C266.894 25.1503 266.894 25.2016 266.843 25.3042C266.792 25.4069 266.792 25.4582 266.689 25.5095C266.638 25.5609 266.536 25.6122 266.485 25.6635C266.382 25.7149 266.331 25.7149 266.229 25.7149H256.858C256.551 25.7149 256.346 25.9715 256.346 26.2281V47.8883C256.346 48.2989 256.141 48.5042 255.783 48.5042H249.126C249.024 48.5042 248.973 48.5042 248.87 48.5042C248.768 48.4529 248.717 48.4529 248.666 48.3503C248.614 48.2989 248.563 48.1963 248.512 48.1449C248.563 48.0936 248.563 47.991 248.563 47.9396Z" fill="#FAFAFA"/>
<path d="M212.926 34.3378C212.926 34.1325 212.926 33.9272 212.926 33.7219C212.823 31.8228 213.13 29.8724 213.796 28.0759C214.513 26.1768 215.639 24.483 217.073 23.0458C218.507 21.6086 220.248 20.5308 222.142 19.8122C224.805 18.7343 231.103 18.6317 234.124 19.8122C236.019 20.5308 237.811 21.6086 239.244 23.0458C240.678 24.483 241.805 26.1768 242.521 28.0759C243.187 29.8724 243.494 31.7715 243.392 33.7219C243.392 33.9272 243.392 34.1325 243.392 34.3378C243.443 36.237 243.136 38.1361 242.47 39.9325C241.753 41.8317 240.627 43.5255 239.142 44.9113C237.708 46.2971 235.967 47.4263 234.073 48.0936C230.386 49.3768 225.522 49.4794 222.142 48.0936C220.248 47.375 218.507 46.2971 217.073 44.9113C215.639 43.5255 214.513 41.7803 213.796 39.9325C213.182 38.1361 212.823 36.237 212.926 34.3378ZM228.133 43.1148C232.895 43.1148 235.558 39.8299 235.558 34.0812C235.558 28.3325 232.793 24.9449 228.133 24.9449C223.474 24.9449 220.709 28.2299 220.709 34.0812C220.709 39.9325 223.32 43.1148 228.133 43.1148Z" fill="#FAFAFA"/>
<path d="M180.155 34.0303C180.053 32.0285 180.36 29.9754 181.077 28.1277C181.793 26.2285 182.92 24.5347 184.405 23.0976C185.839 21.6604 187.58 20.5825 189.525 19.8639C191.42 19.1454 193.468 18.8374 195.516 18.9914C203.043 18.94 208.42 22.7383 209.341 29.2569C209.341 29.3595 209.341 29.4108 209.29 29.5135C209.239 29.6162 209.239 29.6675 209.136 29.7188C209.085 29.7701 208.983 29.8215 208.932 29.8728C208.829 29.9241 208.778 29.9241 208.676 29.9241L202.275 30.2321C201.865 30.2321 201.712 30.0268 201.609 29.6162C201.507 28.8976 201.302 28.2303 200.944 27.6144C200.585 26.9985 200.124 26.4852 199.561 26.0232C198.998 25.6126 198.332 25.2533 197.667 25.0993C196.95 24.894 196.233 24.894 195.567 24.9454C190.908 24.9454 188.296 28.4869 188.296 34.0816C188.296 39.6763 191.01 43.1153 195.567 43.1153C197.052 43.3206 198.537 42.9613 199.715 42.0887C200.893 41.2162 201.661 40.087 201.865 38.6498C201.865 38.5471 201.865 38.4958 201.917 38.3931C201.968 38.2905 202.019 38.2392 202.07 38.1878C202.121 38.1365 202.224 38.0852 202.275 38.0339C202.377 37.9825 202.429 37.9825 202.531 37.9825L208.983 38.1365C209.392 38.1365 209.648 38.3418 209.597 38.7011C208.624 45.1684 203.094 48.9666 195.414 48.9153C193.366 49.0693 191.369 48.7613 189.423 48.094C187.528 47.3754 185.787 46.2976 184.354 44.8604C182.92 43.4232 181.793 41.7294 181.077 39.8303C180.36 38.0852 180.053 36.0321 180.155 34.0303Z" fill="#FAFAFA"/>
<path d="M123.37 34.0302C123.216 32.0284 123.523 29.9753 124.24 28.0762C124.957 26.1771 126.084 24.4319 127.568 23.0461C129.053 21.6602 130.794 20.531 132.689 19.8125C134.635 19.0939 136.683 18.8372 138.731 18.9912C147.64 18.9912 152.966 24.6372 152.966 33.9275V35.5187C152.966 35.6726 152.914 35.8266 152.761 35.9806C152.658 36.0833 152.454 36.1859 152.3 36.1859H131.46C131.409 37.1611 131.614 38.085 131.972 38.9576C132.33 39.8302 132.894 40.6514 133.559 41.3187C134.276 41.9859 135.095 42.4992 135.966 42.8071C136.888 43.1151 137.86 43.2691 138.782 43.2178C140.062 43.3717 141.393 43.1664 142.52 42.4992C143.646 41.8833 144.415 41.1133 144.927 39.9328C144.978 39.7788 145.029 39.6248 145.183 39.5222C145.336 39.4195 145.49 39.3682 145.643 39.4195L152.044 39.7275C152.505 39.7275 152.71 39.7275 152.658 40.1895C151.634 45.7328 145.49 48.9664 138.577 48.9151C136.58 49.0691 134.532 48.7611 132.638 48.0939C130.743 47.4266 129.002 46.3487 127.568 44.9116C126.135 43.5257 125.008 41.8319 124.291 39.9328C123.575 38.0337 123.267 36.0319 123.37 34.0302ZM145.336 31.4638C145.387 30.5912 145.285 29.7187 144.978 28.8974C144.671 28.0762 144.21 27.3063 143.595 26.6903C142.981 26.0744 142.213 25.5611 141.393 25.2532C140.574 24.9452 139.704 24.7912 138.782 24.7912C137.86 24.6886 136.888 24.8425 136.017 25.1505C135.147 25.4585 134.327 25.9204 133.61 26.5364C132.945 27.1523 132.382 27.9222 132.023 28.7948C131.665 29.6673 131.46 30.5399 131.46 31.5151H145.336V31.4638Z" fill="#FAFAFA"/>
<path d="M269.813 34.0302C269.659 32.0284 269.967 29.9753 270.684 28.0762C271.4 26.1771 272.527 24.4319 274.012 23.0461C275.497 21.6602 277.238 20.531 279.132 19.8125C281.078 19.0939 283.126 18.8372 285.174 18.9912C294.084 18.9912 299.409 24.6372 299.409 33.9275V35.5187C299.409 35.6726 299.358 35.8266 299.204 35.9806C299.102 36.0833 298.897 36.1859 298.743 36.1859H277.903C277.852 37.1611 278.057 38.085 278.415 38.9576C278.774 39.8302 279.337 40.6514 280.003 41.3187C280.719 41.9859 281.539 42.4992 282.409 42.8071C283.331 43.1151 284.304 43.2691 285.225 43.2178C286.506 43.3717 287.837 43.1664 288.963 42.4992C290.09 41.8833 290.858 41.1133 291.37 39.9328C291.421 39.7788 291.472 39.6248 291.626 39.5222C291.78 39.4195 291.933 39.3682 292.087 39.4195L298.487 39.7275C298.948 39.7275 299.153 39.7275 299.102 40.1895C298.078 45.7328 291.933 48.9664 285.021 48.9151C283.024 49.0691 280.976 48.7611 279.081 48.0939C277.186 47.4266 275.445 46.3487 274.012 44.9116C272.578 43.5257 271.452 41.8319 270.735 39.9328C270.018 38.0337 269.659 36.0319 269.813 34.0302ZM291.728 31.4638C291.78 30.5912 291.677 29.7187 291.37 28.8974C291.063 28.0762 290.602 27.3063 289.987 26.6903C289.373 26.0744 288.605 25.5611 287.786 25.2532C286.966 24.9452 286.096 24.7912 285.174 24.7912C284.253 24.6886 283.28 24.8425 282.409 25.1505C281.539 25.4585 280.719 25.9204 280.003 26.5364C279.337 27.1523 278.774 27.9222 278.415 28.7948C278.057 29.6673 277.852 30.5399 277.852 31.5151H291.728V31.4638Z" fill="#FAFAFA"/>
</g>
<defs>
<clipPath id="clip0_285_2311">
<rect width="311" height="58" fill="white"/>
</clipPath>
</defs>
</svg>
