<svg width="38" height="38" viewBox="0 0 38 38" fill="none" xmlns="http://www.w3.org/2000/svg">
<path opacity="0.4" d="M25.634 3.1665H12.3657C6.60234 3.1665 3.1665 6.60234 3.1665 12.3657V25.6182C3.1665 31.3973 6.60234 34.8332 12.3657 34.8332H25.6182C31.3815 34.8332 34.8173 31.3973 34.8173 25.634V12.3657C34.8332 6.60234 31.3973 3.1665 25.634 3.1665Z" fill="#EF5944"/>
<path d="M10.8936 29.925C10.2444 29.925 9.70605 29.3866 9.70605 28.7375V25.46C9.70605 24.8108 10.2444 24.2725 10.8936 24.2725C11.5427 24.2725 12.0811 24.8108 12.0811 25.46V28.7375C12.0811 29.4025 11.5427 29.925 10.8936 29.925Z" fill="#EF5944"/>
<path d="M19 29.9248C18.3508 29.9248 17.8125 29.3865 17.8125 28.7373V22.1665C17.8125 21.5173 18.3508 20.979 19 20.979C19.6492 20.979 20.1875 21.5173 20.1875 22.1665V28.7373C20.1875 29.4023 19.6492 29.9248 19 29.9248Z" fill="#EF5944"/>
<path d="M27.1064 29.925C26.4573 29.925 25.9189 29.3867 25.9189 28.7375V18.8892C25.9189 18.24 26.4573 17.7017 27.1064 17.7017C27.7556 17.7017 28.2939 18.24 28.2939 18.8892V28.7375C28.2939 29.4025 27.7714 29.925 27.1064 29.925Z" fill="#EF5944"/>
<path d="M28.2942 9.21495C28.2942 9.13578 28.2626 9.04078 28.2467 8.96162C28.2309 8.89828 28.215 8.81912 28.1992 8.75578C28.1675 8.69245 28.1201 8.64495 28.0884 8.58162C28.0409 8.51828 27.9934 8.43912 27.93 8.39162C27.9142 8.37578 27.9142 8.35995 27.8984 8.35995C27.8509 8.32829 27.8034 8.31245 27.7559 8.28078C27.6926 8.23328 27.6134 8.18578 27.5342 8.15412C27.455 8.12245 27.3759 8.12245 27.2967 8.10662C27.2334 8.09078 27.1859 8.07495 27.1225 8.07495H22.4834C21.8342 8.07495 21.2959 8.61328 21.2959 9.26245C21.2959 9.91162 21.8342 10.45 22.4834 10.45H24.4626C20.6942 14.4083 15.9442 17.195 10.6084 18.5408C9.97505 18.6991 9.57922 19.3483 9.73755 19.9816C9.86422 20.52 10.3551 20.8841 10.8934 20.8841C10.9884 20.8841 11.0834 20.8683 11.1784 20.8525C16.8309 19.4433 21.8817 16.5141 25.9192 12.3658V13.9016C25.9192 14.5508 26.4576 15.0891 27.1067 15.0891C27.7559 15.0891 28.2942 14.5508 28.2942 13.9016V9.26245C28.2942 9.24662 28.2942 9.23079 28.2942 9.21495Z" fill="#EF5944"/>
</svg>
