<svg width="39" height="38" viewBox="0 0 39 38" fill="none" xmlns="http://www.w3.org/2000/svg">
<path d="M24.8674 8.24925L27.0999 12.7142C27.4007 13.3317 28.2082 13.9176 28.8891 14.0442L32.9266 14.7093C35.5074 15.1368 36.1091 17.0051 34.2566 18.8734L31.1057 22.0243C30.5832 22.5467 30.2824 23.5759 30.4566 24.3201L31.3591 28.2151C32.0716 31.2867 30.4249 32.4901 27.7174 30.8751L23.9332 28.6268C23.2524 28.2151 22.1124 28.2151 21.4316 28.6268L17.6474 30.8751C14.9399 32.4743 13.2933 31.2867 14.0058 28.2151L14.9083 24.3201C15.0824 23.5918 14.7816 22.5626 14.2591 22.0243L11.1083 18.8734C9.25577 17.0209 9.85744 15.1526 12.4383 14.7093L16.4757 14.0442C17.1566 13.9334 17.9641 13.3317 18.2649 12.7142L20.4974 8.24925C21.6849 5.82675 23.6483 5.82675 24.8674 8.24925Z" fill="#EF5944"/>
<path opacity="0.4" d="M13.1667 9.10425H3.66675C3.01758 9.10425 2.47925 8.56591 2.47925 7.91675C2.47925 7.26758 3.01758 6.72925 3.66675 6.72925H13.1667C13.8159 6.72925 14.3542 7.26758 14.3542 7.91675C14.3542 8.56591 13.8159 9.10425 13.1667 9.10425Z" fill="#EF5944"/>
<path opacity="0.4" d="M8.41675 31.2708H3.66675C3.01758 31.2708 2.47925 30.7324 2.47925 30.0833C2.47925 29.4341 3.01758 28.8958 3.66675 28.8958H8.41675C9.06592 28.8958 9.60425 29.4341 9.60425 30.0833C9.60425 30.7324 9.06592 31.2708 8.41675 31.2708Z" fill="#EF5944"/>
<path opacity="0.4" d="M5.25008 20.1875H3.66675C3.01758 20.1875 2.47925 19.6492 2.47925 19C2.47925 18.3508 3.01758 17.8125 3.66675 17.8125H5.25008C5.89925 17.8125 6.43758 18.3508 6.43758 19C6.43758 19.6492 5.89925 20.1875 5.25008 20.1875Z" fill="#EF5944"/>
</svg>
