<svg width="24" height="24" viewBox="0 0 24 24" fill="none" xmlns="http://www.w3.org/2000/svg">
<path fill-rule="evenodd" clip-rule="evenodd" d="M21.8184 6.14561C21.1358 6.44807 20.4034 6.65319 19.6339 6.74477C20.4196 6.27425 21.0211 5.52795 21.3061 4.6414C20.5691 5.07713 19.7556 5.39352 18.8887 5.56504C18.1946 4.82452 17.2072 4.36328 16.112 4.36328C14.011 4.36328 12.3075 6.06683 12.3075 8.16671C12.3075 8.46452 12.3411 8.7554 12.406 9.03355C9.24459 8.87477 6.44128 7.36013 4.56507 5.05858C4.2371 5.61949 4.05053 6.27307 4.05053 6.97074C4.05053 8.29071 4.72268 9.45537 5.74249 10.1368C5.11901 10.1159 4.53262 9.9444 4.01925 9.65931V9.70683C4.01925 11.5494 5.3311 13.0873 7.07056 13.4373C6.75186 13.523 6.4158 13.5705 6.06813 13.5705C5.82246 13.5705 5.58489 13.5462 5.35195 13.4998C5.83634 15.0122 7.24092 16.1119 8.90507 16.1421C7.60365 17.1619 5.96268 17.768 4.18034 17.768C3.87325 17.768 3.57077 17.7494 3.27295 17.7158C4.9568 18.7971 6.95586 19.4275 9.1044 19.4275C16.1028 19.4275 19.9283 13.6308 19.9283 8.60361L19.9155 8.1111C20.663 7.57798 21.3096 6.90816 21.8184 6.14561Z" fill="#BBC3CF"/>
<mask id="mask0_276_987" style="mask-type:luminance" maskUnits="userSpaceOnUse" x="3" y="4" width="19" height="16">
<path fill-rule="evenodd" clip-rule="evenodd" d="M21.8184 6.14561C21.1358 6.44807 20.4034 6.65319 19.6339 6.74477C20.4196 6.27425 21.0211 5.52795 21.3061 4.6414C20.5691 5.07713 19.7556 5.39352 18.8887 5.56504C18.1946 4.82452 17.2072 4.36328 16.112 4.36328C14.011 4.36328 12.3075 6.06683 12.3075 8.16671C12.3075 8.46452 12.3411 8.7554 12.406 9.03355C9.24459 8.87477 6.44128 7.36013 4.56507 5.05858C4.2371 5.61949 4.05053 6.27307 4.05053 6.97074C4.05053 8.29071 4.72268 9.45537 5.74249 10.1368C5.11901 10.1159 4.53262 9.9444 4.01925 9.65931V9.70683C4.01925 11.5494 5.3311 13.0873 7.07056 13.4373C6.75186 13.523 6.4158 13.5705 6.06813 13.5705C5.82246 13.5705 5.58489 13.5462 5.35195 13.4998C5.83634 15.0122 7.24092 16.1119 8.90507 16.1421C7.60365 17.1619 5.96268 17.768 4.18034 17.768C3.87325 17.768 3.57077 17.7494 3.27295 17.7158C4.9568 18.7971 6.95586 19.4275 9.1044 19.4275C16.1028 19.4275 19.9283 13.6308 19.9283 8.60361L19.9155 8.1111C20.663 7.57798 21.3096 6.90816 21.8184 6.14561Z" fill="white"/>
</mask>
<g mask="url(#mask0_276_987)">
</g>
</svg>
