<svg width="20" height="21" viewBox="0 0 20 21" fill="none" xmlns="http://www.w3.org/2000/svg">
<path d="M15.0004 12.167C15.3592 13.8369 16.6635 15.1414 18.3334 15.5C16.6635 15.8586 15.3592 17.1631 15.0004 18.833C14.6417 17.163 13.3365 15.8586 11.6664 15.5C13.3365 15.1414 14.6417 13.837 15.0004 12.167ZM7.56 2.33301C8.31955 5.87014 11.0825 8.63385 14.6196 9.39355C11.0826 10.1533 8.3196 12.9161 7.56 16.4531C6.80038 12.9161 4.03742 10.1533 0.500427 9.39355C4.03753 8.63387 6.80044 5.87016 7.56 2.33301ZM15.8334 2.16699C16.1025 3.4194 17.081 4.39804 18.3334 4.66699C17.0809 4.93597 16.1024 5.91442 15.8334 7.16699C15.5645 5.91448 14.5859 4.93602 13.3334 4.66699C14.5859 4.39803 15.5644 3.41941 15.8334 2.16699Z" fill="#FFC73A"/>
</svg>
